<svg width="884" height="477" viewBox="0 0 884 477" fill="none" xmlns="http://www.w3.org/2000/svg">
<mask id="path-1-outside-1_57_15" maskUnits="userSpaceOnUse" x="285.863" y="0" width="68" height="155" fill="black">
<rect fill="white" x="285.863" width="68" height="155"/>
<path d="M286.863 152.5V1H351.863L337.363 49H328.863V112.5L286.863 152.5Z"/>
<path d="M301.636 45.0923H300.528C300.485 44.8556 300.406 44.6473 300.29 44.4673C300.174 44.2874 300.032 44.1347 299.864 44.0092C299.696 43.8838 299.507 43.7891 299.299 43.7251C299.093 43.6612 298.874 43.6293 298.642 43.6293C298.223 43.6293 297.848 43.7346 297.516 43.9453C297.187 44.156 296.927 44.465 296.735 44.8722C296.546 45.2794 296.451 45.7765 296.451 46.3636C296.451 46.9555 296.546 47.455 296.735 47.8622C296.927 48.2694 297.189 48.5772 297.52 48.7855C297.851 48.9938 298.224 49.098 298.639 49.098C298.868 49.098 299.086 49.0672 299.292 49.0057C299.5 48.9418 299.689 48.8482 299.857 48.7251C300.025 48.602 300.167 48.4517 300.283 48.2741C300.401 48.0942 300.483 47.8883 300.528 47.6562L301.636 47.6598C301.577 48.0173 301.462 48.3464 301.291 48.647C301.123 48.9453 300.907 49.2034 300.641 49.4212C300.379 49.6366 300.078 49.8035 299.739 49.9219C299.401 50.0402 299.032 50.0994 298.632 50.0994C298.002 50.0994 297.441 49.9503 296.948 49.652C296.456 49.3513 296.068 48.9216 295.784 48.3629C295.502 47.8042 295.361 47.1378 295.361 46.3636C295.361 45.5871 295.503 44.9207 295.787 44.3643C296.071 43.8056 296.459 43.3771 296.952 43.0788C297.444 42.7782 298.004 42.6278 298.632 42.6278C299.017 42.6278 299.377 42.6835 299.711 42.7947C300.047 42.9036 300.349 43.0646 300.617 43.2777C300.884 43.4884 301.105 43.7464 301.281 44.0518C301.456 44.3549 301.574 44.7017 301.636 45.0923Z"/>
<path d="M303.464 50H302.3L304.917 42.7273H306.184L308.802 50H307.637L305.581 44.0483H305.524L303.464 50ZM303.66 47.152H307.438V48.0753H303.66V47.152Z"/>
<path d="M308.584 43.6719V42.7273H314.212V43.6719H311.943V50H310.85V43.6719H308.584Z"/>
<path d="M320.663 42.7273V50H319.562V43.8281H319.519L317.779 44.9645V43.9134L319.594 42.7273H320.663Z"/>
<path d="M307.818 81.1207C307.472 81.1207 307.16 81.0568 306.88 80.929C306.601 80.7988 306.38 80.6106 306.216 80.3643C306.055 80.1181 305.975 79.8163 305.975 79.4588C305.975 79.151 306.034 78.8977 306.152 78.6989C306.271 78.5 306.43 78.3426 306.632 78.2266C306.833 78.1106 307.058 78.023 307.306 77.9638C307.555 77.9046 307.808 77.8596 308.066 77.8288C308.393 77.791 308.658 77.7602 308.862 77.7365C309.065 77.7105 309.213 77.669 309.306 77.6122C309.398 77.5554 309.444 77.4631 309.444 77.3352V77.3104C309.444 77.0002 309.357 76.7599 309.181 76.5895C309.009 76.419 308.751 76.3338 308.407 76.3338C308.05 76.3338 307.768 76.4131 307.562 76.5717C307.358 76.728 307.218 76.902 307.139 77.0938L306.142 76.8665C306.26 76.535 306.433 76.2675 306.66 76.0639C306.89 75.858 307.154 75.7088 307.452 75.6165C307.75 75.5218 308.064 75.4744 308.393 75.4744C308.611 75.4744 308.842 75.5005 309.085 75.5526C309.332 75.6023 309.561 75.6946 309.774 75.8295C309.99 75.9645 310.166 76.1574 310.304 76.4084C310.441 76.657 310.509 76.9801 310.509 77.3778V81H309.473V80.2543H309.43C309.361 80.3916 309.258 80.5265 309.121 80.6591C308.984 80.7917 308.807 80.9018 308.592 80.9893C308.376 81.0769 308.118 81.1207 307.818 81.1207ZM308.049 80.2685C308.342 80.2685 308.593 80.2105 308.801 80.0945C309.012 79.9785 309.172 79.8269 309.281 79.6399C309.392 79.4505 309.448 79.2481 309.448 79.0327V78.3295C309.41 78.3674 309.336 78.4029 309.228 78.4361C309.121 78.4669 308.999 78.4941 308.862 78.5178C308.724 78.5391 308.591 78.5592 308.46 78.5781C308.33 78.5947 308.221 78.6089 308.134 78.6207C307.928 78.6468 307.74 78.6906 307.569 78.7521C307.401 78.8137 307.266 78.9025 307.164 79.0185C307.065 79.1321 307.015 79.2836 307.015 79.473C307.015 79.7358 307.112 79.9347 307.306 80.0696C307.501 80.2022 307.748 80.2685 308.049 80.2685Z"/>
</mask>
<path id="seat-a" d="M286.863 152.5V1H351.863L337.363 49H328.863V112.5L286.863 152.5Z" fill="#FEE505"/>
<path d="M301.636 45.0923H300.528C300.485 44.8556 300.406 44.6473 300.29 44.4673C300.174 44.2874 300.032 44.1347 299.864 44.0092C299.696 43.8838 299.507 43.7891 299.299 43.7251C299.093 43.6612 298.874 43.6293 298.642 43.6293C298.223 43.6293 297.848 43.7346 297.516 43.9453C297.187 44.156 296.927 44.465 296.735 44.8722C296.546 45.2794 296.451 45.7765 296.451 46.3636C296.451 46.9555 296.546 47.455 296.735 47.8622C296.927 48.2694 297.189 48.5772 297.52 48.7855C297.851 48.9938 298.224 49.098 298.639 49.098C298.868 49.098 299.086 49.0672 299.292 49.0057C299.5 48.9418 299.689 48.8482 299.857 48.7251C300.025 48.602 300.167 48.4517 300.283 48.2741C300.401 48.0942 300.483 47.8883 300.528 47.6562L301.636 47.6598C301.577 48.0173 301.462 48.3464 301.291 48.647C301.123 48.9453 300.907 49.2034 300.641 49.4212C300.379 49.6366 300.078 49.8035 299.739 49.9219C299.401 50.0402 299.032 50.0994 298.632 50.0994C298.002 50.0994 297.441 49.9503 296.948 49.652C296.456 49.3513 296.068 48.9216 295.784 48.3629C295.502 47.8042 295.361 47.1378 295.361 46.3636C295.361 45.5871 295.503 44.9207 295.787 44.3643C296.071 43.8056 296.459 43.3771 296.952 43.0788C297.444 42.7782 298.004 42.6278 298.632 42.6278C299.017 42.6278 299.377 42.6835 299.711 42.7947C300.047 42.9036 300.349 43.0646 300.617 43.2777C300.884 43.4884 301.105 43.7464 301.281 44.0518C301.456 44.3549 301.574 44.7017 301.636 45.0923Z" fill="black"/>
<path d="M303.464 50H302.3L304.917 42.7273H306.184L308.802 50H307.637L305.581 44.0483H305.524L303.464 50ZM303.66 47.152H307.438V48.0753H303.66V47.152Z" fill="black"/>
<path d="M308.584 43.6719V42.7273H314.212V43.6719H311.943V50H310.85V43.6719H308.584Z" fill="black"/>
<path d="M320.663 42.7273V50H319.562V43.8281H319.519L317.779 44.9645V43.9134L319.594 42.7273H320.663Z" fill="black"/>
<path d="M307.818 81.1207C307.472 81.1207 307.16 81.0568 306.88 80.929C306.601 80.7988 306.38 80.6106 306.216 80.3643C306.055 80.1181 305.975 79.8163 305.975 79.4588C305.975 79.151 306.034 78.8977 306.152 78.6989C306.271 78.5 306.43 78.3426 306.632 78.2266C306.833 78.1106 307.058 78.023 307.306 77.9638C307.555 77.9046 307.808 77.8596 308.066 77.8288C308.393 77.791 308.658 77.7602 308.862 77.7365C309.065 77.7105 309.213 77.669 309.306 77.6122C309.398 77.5554 309.444 77.4631 309.444 77.3352V77.3104C309.444 77.0002 309.357 76.7599 309.181 76.5895C309.009 76.419 308.751 76.3338 308.407 76.3338C308.05 76.3338 307.768 76.4131 307.562 76.5717C307.358 76.728 307.218 76.902 307.139 77.0938L306.142 76.8665C306.26 76.535 306.433 76.2675 306.66 76.0639C306.89 75.858 307.154 75.7088 307.452 75.6165C307.75 75.5218 308.064 75.4744 308.393 75.4744C308.611 75.4744 308.842 75.5005 309.085 75.5526C309.332 75.6023 309.561 75.6946 309.774 75.8295C309.99 75.9645 310.166 76.1574 310.304 76.4084C310.441 76.657 310.509 76.9801 310.509 77.3778V81H309.473V80.2543H309.43C309.361 80.3916 309.258 80.5265 309.121 80.6591C308.984 80.7917 308.807 80.9018 308.592 80.9893C308.376 81.0769 308.118 81.1207 307.818 81.1207ZM308.049 80.2685C308.342 80.2685 308.593 80.2105 308.801 80.0945C309.012 79.9785 309.172 79.8269 309.281 79.6399C309.392 79.4505 309.448 79.2481 309.448 79.0327V78.3295C309.41 78.3674 309.336 78.4029 309.228 78.4361C309.121 78.4669 308.999 78.4941 308.862 78.5178C308.724 78.5391 308.591 78.5592 308.46 78.5781C308.33 78.5947 308.221 78.6089 308.134 78.6207C307.928 78.6468 307.74 78.6906 307.569 78.7521C307.401 78.8137 307.266 78.9025 307.164 79.0185C307.065 79.1321 307.015 79.2836 307.015 79.473C307.015 79.7358 307.112 79.9347 307.306 80.0696C307.501 80.2022 307.748 80.2685 308.049 80.2685Z" fill="black"/>
<path d="M286.863 152.5V1H351.863L337.363 49H328.863V112.5L286.863 152.5Z" stroke="black" stroke-width="2" mask="url(#path-1-outside-1_57_15)"/>
<path d="M301.636 45.0923H300.528C300.485 44.8556 300.406 44.6473 300.29 44.4673C300.174 44.2874 300.032 44.1347 299.864 44.0092C299.696 43.8838 299.507 43.7891 299.299 43.7251C299.093 43.6612 298.874 43.6293 298.642 43.6293C298.223 43.6293 297.848 43.7346 297.516 43.9453C297.187 44.156 296.927 44.465 296.735 44.8722C296.546 45.2794 296.451 45.7765 296.451 46.3636C296.451 46.9555 296.546 47.455 296.735 47.8622C296.927 48.2694 297.189 48.5772 297.52 48.7855C297.851 48.9938 298.224 49.098 298.639 49.098C298.868 49.098 299.086 49.0672 299.292 49.0057C299.5 48.9418 299.689 48.8482 299.857 48.7251C300.025 48.602 300.167 48.4517 300.283 48.2741C300.401 48.0942 300.483 47.8883 300.528 47.6562L301.636 47.6598C301.577 48.0173 301.462 48.3464 301.291 48.647C301.123 48.9453 300.907 49.2034 300.641 49.4212C300.379 49.6366 300.078 49.8035 299.739 49.9219C299.401 50.0402 299.032 50.0994 298.632 50.0994C298.002 50.0994 297.441 49.9503 296.948 49.652C296.456 49.3513 296.068 48.9216 295.784 48.3629C295.502 47.8042 295.361 47.1378 295.361 46.3636C295.361 45.5871 295.503 44.9207 295.787 44.3643C296.071 43.8056 296.459 43.3771 296.952 43.0788C297.444 42.7782 298.004 42.6278 298.632 42.6278C299.017 42.6278 299.377 42.6835 299.711 42.7947C300.047 42.9036 300.349 43.0646 300.617 43.2777C300.884 43.4884 301.105 43.7464 301.281 44.0518C301.456 44.3549 301.574 44.7017 301.636 45.0923Z" stroke="black" stroke-width="2" mask="url(#path-1-outside-1_57_15)"/>
<path d="M303.464 50H302.3L304.917 42.7273H306.184L308.802 50H307.637L305.581 44.0483H305.524L303.464 50ZM303.66 47.152H307.438V48.0753H303.66V47.152Z" stroke="black" stroke-width="2" mask="url(#path-1-outside-1_57_15)"/>
<path d="M308.584 43.6719V42.7273H314.212V43.6719H311.943V50H310.85V43.6719H308.584Z" stroke="black" stroke-width="2" mask="url(#path-1-outside-1_57_15)"/>
<path d="M320.663 42.7273V50H319.562V43.8281H319.519L317.779 44.9645V43.9134L319.594 42.7273H320.663Z" stroke="black" stroke-width="2" mask="url(#path-1-outside-1_57_15)"/>
<path d="M307.818 81.1207C307.472 81.1207 307.16 81.0568 306.88 80.929C306.601 80.7988 306.38 80.6106 306.216 80.3643C306.055 80.1181 305.975 79.8163 305.975 79.4588C305.975 79.151 306.034 78.8977 306.152 78.6989C306.271 78.5 306.43 78.3426 306.632 78.2266C306.833 78.1106 307.058 78.023 307.306 77.9638C307.555 77.9046 307.808 77.8596 308.066 77.8288C308.393 77.791 308.658 77.7602 308.862 77.7365C309.065 77.7105 309.213 77.669 309.306 77.6122C309.398 77.5554 309.444 77.4631 309.444 77.3352V77.3104C309.444 77.0002 309.357 76.7599 309.181 76.5895C309.009 76.419 308.751 76.3338 308.407 76.3338C308.05 76.3338 307.768 76.4131 307.562 76.5717C307.358 76.728 307.218 76.902 307.139 77.0938L306.142 76.8665C306.26 76.535 306.433 76.2675 306.66 76.0639C306.89 75.858 307.154 75.7088 307.452 75.6165C307.75 75.5218 308.064 75.4744 308.393 75.4744C308.611 75.4744 308.842 75.5005 309.085 75.5526C309.332 75.6023 309.561 75.6946 309.774 75.8295C309.99 75.9645 310.166 76.1574 310.304 76.4084C310.441 76.657 310.509 76.9801 310.509 77.3778V81H309.473V80.2543H309.43C309.361 80.3916 309.258 80.5265 309.121 80.6591C308.984 80.7917 308.807 80.9018 308.592 80.9893C308.376 81.0769 308.118 81.1207 307.818 81.1207ZM308.049 80.2685C308.342 80.2685 308.593 80.2105 308.801 80.0945C309.012 79.9785 309.172 79.8269 309.281 79.6399C309.392 79.4505 309.448 79.2481 309.448 79.0327V78.3295C309.41 78.3674 309.336 78.4029 309.228 78.4361C309.121 78.4669 308.999 78.4941 308.862 78.5178C308.724 78.5391 308.591 78.5592 308.46 78.5781C308.33 78.5947 308.221 78.6089 308.134 78.6207C307.928 78.6468 307.74 78.6906 307.569 78.7521C307.401 78.8137 307.266 78.9025 307.164 79.0185C307.065 79.1321 307.015 79.2836 307.015 79.473C307.015 79.7358 307.112 79.9347 307.306 80.0696C307.501 80.2022 307.748 80.2685 308.049 80.2685Z" stroke="black" stroke-width="2" mask="url(#path-1-outside-1_57_15)"/>
<mask id="path-2-outside-2_57_15" maskUnits="userSpaceOnUse" x="226.363" y="34" width="54" height="143" fill="black">
<rect fill="white" x="226.363" y="34" width="54" height="143"/>
<path d="M279.363 176V35H227.363V146H249.863L265.863 160.5V176H279.363Z"/>
<path d="M244.276 67.0923H243.168C243.126 66.8556 243.047 66.6473 242.931 66.4673C242.815 66.2874 242.672 66.1347 242.504 66.0092C242.336 65.8838 242.148 65.7891 241.94 65.7251C241.734 65.6612 241.515 65.6293 241.283 65.6293C240.864 65.6293 240.489 65.7346 240.157 65.9453C239.828 66.156 239.568 66.465 239.376 66.8722C239.186 67.2794 239.092 67.7765 239.092 68.3636C239.092 68.9555 239.186 69.455 239.376 69.8622C239.568 70.2694 239.829 70.5772 240.161 70.7855C240.492 70.9938 240.865 71.098 241.279 71.098C241.509 71.098 241.727 71.0672 241.933 71.0057C242.141 70.9418 242.329 70.8482 242.497 70.7251C242.665 70.602 242.807 70.4517 242.923 70.2741C243.042 70.0942 243.123 69.8883 243.168 69.6562L244.276 69.6598C244.217 70.0173 244.102 70.3464 243.932 70.647C243.764 70.9453 243.547 71.2034 243.282 71.4212C243.019 71.6366 242.719 71.8035 242.38 71.9219C242.042 72.0402 241.672 72.0994 241.272 72.0994C240.642 72.0994 240.081 71.9503 239.589 71.652C239.096 71.3513 238.708 70.9216 238.424 70.3629C238.142 69.8042 238.002 69.1378 238.002 68.3636C238.002 67.5871 238.144 66.9207 238.428 66.3643C238.712 65.8056 239.1 65.3771 239.592 65.0788C240.085 64.7782 240.645 64.6278 241.272 64.6278C241.658 64.6278 242.018 64.6835 242.352 64.7947C242.688 64.9036 242.99 65.0646 243.257 65.2777C243.525 65.4884 243.746 65.7464 243.921 66.0518C244.096 66.3549 244.215 66.7017 244.276 67.0923Z"/>
<path d="M246.105 72H244.94L247.557 64.7273H248.825L251.442 72H250.278L248.221 66.0483H248.165L246.105 72ZM246.3 69.152H250.079V70.0753H246.3V69.152Z"/>
<path d="M251.225 65.6719V64.7273H256.853V65.6719H254.584V72H253.49V65.6719H251.225Z"/>
<path d="M263.076 72.0994C262.588 72.0994 262.153 72.0154 261.769 71.8473C261.388 71.6792 261.086 71.446 260.864 71.1477C260.643 70.8471 260.525 70.4991 260.508 70.1037H261.623C261.638 70.3191 261.71 70.5062 261.84 70.6648C261.973 70.821 262.145 70.9418 262.359 71.027C262.572 71.1122 262.808 71.1548 263.069 71.1548C263.355 71.1548 263.609 71.1051 263.829 71.0057C264.051 70.9062 264.225 70.7678 264.351 70.5902C264.476 70.4103 264.539 70.2031 264.539 69.9688C264.539 69.7249 264.476 69.5107 264.351 69.326C264.228 69.139 264.047 68.9922 263.807 68.8857C263.571 68.7791 263.284 68.7259 262.948 68.7259H262.334V67.831H262.948C263.218 67.831 263.455 67.7824 263.658 67.6854C263.864 67.5883 264.025 67.4534 264.141 67.2805C264.257 67.1054 264.315 66.9006 264.315 66.6662C264.315 66.4413 264.264 66.246 264.163 66.0803C264.063 65.9122 263.921 65.7808 263.736 65.6861C263.554 65.5914 263.339 65.544 263.09 65.544C262.853 65.544 262.632 65.5878 262.426 65.6754C262.222 65.7607 262.057 65.8838 261.929 66.0447C261.801 66.2034 261.732 66.3939 261.723 66.6165H260.661C260.673 66.2235 260.789 65.8778 261.009 65.5795C261.232 65.2812 261.525 65.0481 261.89 64.88C262.254 64.7119 262.659 64.6278 263.104 64.6278C263.571 64.6278 263.973 64.719 264.312 64.9013C264.653 65.0812 264.915 65.3215 265.1 65.6222C265.287 65.9228 265.379 66.2519 265.377 66.6094C265.379 67.0166 265.266 67.3622 265.036 67.6463C264.809 67.9304 264.506 68.121 264.127 68.218V68.2749C264.61 68.3482 264.984 68.54 265.249 68.8501C265.517 69.1603 265.649 69.545 265.647 70.0043C265.649 70.4044 265.538 70.763 265.313 71.0803C265.091 71.3975 264.786 71.6473 264.4 71.8295C264.015 72.0095 263.573 72.0994 263.076 72.0994Z"/>
<path d="M251.778 105.159C251.345 105.159 250.972 105.102 250.659 104.989C250.349 104.875 250.096 104.725 249.9 104.538C249.703 104.351 249.556 104.146 249.459 103.923L250.372 103.547C250.436 103.651 250.521 103.761 250.627 103.877C250.736 103.995 250.883 104.096 251.068 104.179C251.255 104.262 251.495 104.303 251.789 104.303C252.191 104.303 252.524 104.205 252.787 104.009C253.049 103.814 253.181 103.504 253.181 103.078V102.006H253.113C253.049 102.122 252.957 102.251 252.836 102.393C252.718 102.535 252.555 102.658 252.346 102.762C252.138 102.866 251.867 102.918 251.533 102.918C251.102 102.918 250.714 102.818 250.368 102.616C250.025 102.413 249.753 102.113 249.551 101.718C249.353 101.32 249.253 100.831 249.253 100.251C249.253 99.6714 249.351 99.1742 249.548 98.7599C249.747 98.3456 250.019 98.0284 250.365 97.8082C250.71 97.5857 251.102 97.4744 251.54 97.4744C251.879 97.4744 252.152 97.5312 252.36 97.6449C252.569 97.7562 252.731 97.8864 252.847 98.0355C252.965 98.1847 253.056 98.3161 253.12 98.4297H253.199V97.5455H254.239V103.121C254.239 103.589 254.13 103.974 253.912 104.275C253.694 104.576 253.4 104.798 253.028 104.942C252.659 105.087 252.242 105.159 251.778 105.159ZM251.767 102.038C252.073 102.038 252.331 101.967 252.542 101.825C252.755 101.68 252.916 101.474 253.025 101.207C253.136 100.937 253.191 100.614 253.191 100.237C253.191 99.8703 253.137 99.5471 253.028 99.2678C252.919 98.9884 252.759 98.7706 252.549 98.6143C252.338 98.4557 252.078 98.3764 251.767 98.3764C251.448 98.3764 251.181 98.4593 250.968 98.625C250.755 98.7884 250.594 99.0109 250.485 99.2926C250.379 99.5743 250.326 99.8892 250.326 100.237C250.326 100.595 250.38 100.908 250.489 101.178C250.598 101.448 250.759 101.659 250.972 101.81C251.187 101.962 251.453 102.038 251.767 102.038Z"/>
</mask>
<path id="seat-g" d="M279.363 176V35H227.363V146H249.863L265.863 160.5V176H279.363Z" fill="#A6C8B8"/>
<path d="M244.276 67.0923H243.168C243.126 66.8556 243.047 66.6473 242.931 66.4673C242.815 66.2874 242.672 66.1347 242.504 66.0092C242.336 65.8838 242.148 65.7891 241.94 65.7251C241.734 65.6612 241.515 65.6293 241.283 65.6293C240.864 65.6293 240.489 65.7346 240.157 65.9453C239.828 66.156 239.568 66.465 239.376 66.8722C239.186 67.2794 239.092 67.7765 239.092 68.3636C239.092 68.9555 239.186 69.455 239.376 69.8622C239.568 70.2694 239.829 70.5772 240.161 70.7855C240.492 70.9938 240.865 71.098 241.279 71.098C241.509 71.098 241.727 71.0672 241.933 71.0057C242.141 70.9418 242.329 70.8482 242.497 70.7251C242.665 70.602 242.807 70.4517 242.923 70.2741C243.042 70.0942 243.123 69.8883 243.168 69.6562L244.276 69.6598C244.217 70.0173 244.102 70.3464 243.932 70.647C243.764 70.9453 243.547 71.2034 243.282 71.4212C243.019 71.6366 242.719 71.8035 242.38 71.9219C242.042 72.0402 241.672 72.0994 241.272 72.0994C240.642 72.0994 240.081 71.9503 239.589 71.652C239.096 71.3513 238.708 70.9216 238.424 70.3629C238.142 69.8042 238.002 69.1378 238.002 68.3636C238.002 67.5871 238.144 66.9207 238.428 66.3643C238.712 65.8056 239.1 65.3771 239.592 65.0788C240.085 64.7782 240.645 64.6278 241.272 64.6278C241.658 64.6278 242.018 64.6835 242.352 64.7947C242.688 64.9036 242.99 65.0646 243.257 65.2777C243.525 65.4884 243.746 65.7464 243.921 66.0518C244.096 66.3549 244.215 66.7017 244.276 67.0923Z" fill="black"/>
<path d="M246.105 72H244.94L247.557 64.7273H248.825L251.442 72H250.278L248.221 66.0483H248.165L246.105 72ZM246.3 69.152H250.079V70.0753H246.3V69.152Z" fill="black"/>
<path d="M251.225 65.6719V64.7273H256.853V65.6719H254.584V72H253.49V65.6719H251.225Z" fill="black"/>
<path d="M263.076 72.0994C262.588 72.0994 262.153 72.0154 261.769 71.8473C261.388 71.6792 261.086 71.446 260.864 71.1477C260.643 70.8471 260.525 70.4991 260.508 70.1037H261.623C261.638 70.3191 261.71 70.5062 261.84 70.6648C261.973 70.821 262.145 70.9418 262.359 71.027C262.572 71.1122 262.808 71.1548 263.069 71.1548C263.355 71.1548 263.609 71.1051 263.829 71.0057C264.051 70.9062 264.225 70.7678 264.351 70.5902C264.476 70.4103 264.539 70.2031 264.539 69.9688C264.539 69.7249 264.476 69.5107 264.351 69.326C264.228 69.139 264.047 68.9922 263.807 68.8857C263.571 68.7791 263.284 68.7259 262.948 68.7259H262.334V67.831H262.948C263.218 67.831 263.455 67.7824 263.658 67.6854C263.864 67.5883 264.025 67.4534 264.141 67.2805C264.257 67.1054 264.315 66.9006 264.315 66.6662C264.315 66.4413 264.264 66.246 264.163 66.0803C264.063 65.9122 263.921 65.7808 263.736 65.6861C263.554 65.5914 263.339 65.544 263.09 65.544C262.853 65.544 262.632 65.5878 262.426 65.6754C262.222 65.7607 262.057 65.8838 261.929 66.0447C261.801 66.2034 261.732 66.3939 261.723 66.6165H260.661C260.673 66.2235 260.789 65.8778 261.009 65.5795C261.232 65.2812 261.525 65.0481 261.89 64.88C262.254 64.7119 262.659 64.6278 263.104 64.6278C263.571 64.6278 263.973 64.719 264.312 64.9013C264.653 65.0812 264.915 65.3215 265.1 65.6222C265.287 65.9228 265.379 66.2519 265.377 66.6094C265.379 67.0166 265.266 67.3622 265.036 67.6463C264.809 67.9304 264.506 68.121 264.127 68.218V68.2749C264.61 68.3482 264.984 68.54 265.249 68.8501C265.517 69.1603 265.649 69.545 265.647 70.0043C265.649 70.4044 265.538 70.763 265.313 71.0803C265.091 71.3975 264.786 71.6473 264.4 71.8295C264.015 72.0095 263.573 72.0994 263.076 72.0994Z" fill="black"/>
<path d="M251.778 105.159C251.345 105.159 250.972 105.102 250.659 104.989C250.349 104.875 250.096 104.725 249.9 104.538C249.703 104.351 249.556 104.146 249.459 103.923L250.372 103.547C250.436 103.651 250.521 103.761 250.627 103.877C250.736 103.995 250.883 104.096 251.068 104.179C251.255 104.262 251.495 104.303 251.789 104.303C252.191 104.303 252.524 104.205 252.787 104.009C253.049 103.814 253.181 103.504 253.181 103.078V102.006H253.113C253.049 102.122 252.957 102.251 252.836 102.393C252.718 102.535 252.555 102.658 252.346 102.762C252.138 102.866 251.867 102.918 251.533 102.918C251.102 102.918 250.714 102.818 250.368 102.616C250.025 102.413 249.753 102.113 249.551 101.718C249.353 101.32 249.253 100.831 249.253 100.251C249.253 99.6714 249.351 99.1742 249.548 98.7599C249.747 98.3456 250.019 98.0284 250.365 97.8082C250.71 97.5857 251.102 97.4744 251.54 97.4744C251.879 97.4744 252.152 97.5312 252.36 97.6449C252.569 97.7562 252.731 97.8864 252.847 98.0355C252.965 98.1847 253.056 98.3161 253.12 98.4297H253.199V97.5455H254.239V103.121C254.239 103.589 254.13 103.974 253.912 104.275C253.694 104.576 253.4 104.798 253.028 104.942C252.659 105.087 252.242 105.159 251.778 105.159ZM251.767 102.038C252.073 102.038 252.331 101.967 252.542 101.825C252.755 101.68 252.916 101.474 253.025 101.207C253.136 100.937 253.191 100.614 253.191 100.237C253.191 99.8703 253.137 99.5471 253.028 99.2678C252.919 98.9884 252.759 98.7706 252.549 98.6143C252.338 98.4557 252.078 98.3764 251.767 98.3764C251.448 98.3764 251.181 98.4593 250.968 98.625C250.755 98.7884 250.594 99.0109 250.485 99.2926C250.379 99.5743 250.326 99.8892 250.326 100.237C250.326 100.595 250.38 100.908 250.489 101.178C250.598 101.448 250.759 101.659 250.972 101.81C251.187 101.962 251.453 102.038 251.767 102.038Z" fill="black"/>
<path d="M279.363 176V35H227.363V146H249.863L265.863 160.5V176H279.363Z" stroke="black" stroke-width="2" mask="url(#path-2-outside-2_57_15)"/>
<path d="M244.276 67.0923H243.168C243.126 66.8556 243.047 66.6473 242.931 66.4673C242.815 66.2874 242.672 66.1347 242.504 66.0092C242.336 65.8838 242.148 65.7891 241.94 65.7251C241.734 65.6612 241.515 65.6293 241.283 65.6293C240.864 65.6293 240.489 65.7346 240.157 65.9453C239.828 66.156 239.568 66.465 239.376 66.8722C239.186 67.2794 239.092 67.7765 239.092 68.3636C239.092 68.9555 239.186 69.455 239.376 69.8622C239.568 70.2694 239.829 70.5772 240.161 70.7855C240.492 70.9938 240.865 71.098 241.279 71.098C241.509 71.098 241.727 71.0672 241.933 71.0057C242.141 70.9418 242.329 70.8482 242.497 70.7251C242.665 70.602 242.807 70.4517 242.923 70.2741C243.042 70.0942 243.123 69.8883 243.168 69.6562L244.276 69.6598C244.217 70.0173 244.102 70.3464 243.932 70.647C243.764 70.9453 243.547 71.2034 243.282 71.4212C243.019 71.6366 242.719 71.8035 242.38 71.9219C242.042 72.0402 241.672 72.0994 241.272 72.0994C240.642 72.0994 240.081 71.9503 239.589 71.652C239.096 71.3513 238.708 70.9216 238.424 70.3629C238.142 69.8042 238.002 69.1378 238.002 68.3636C238.002 67.5871 238.144 66.9207 238.428 66.3643C238.712 65.8056 239.1 65.3771 239.592 65.0788C240.085 64.7782 240.645 64.6278 241.272 64.6278C241.658 64.6278 242.018 64.6835 242.352 64.7947C242.688 64.9036 242.99 65.0646 243.257 65.2777C243.525 65.4884 243.746 65.7464 243.921 66.0518C244.096 66.3549 244.215 66.7017 244.276 67.0923Z" stroke="black" stroke-width="2" mask="url(#path-2-outside-2_57_15)"/>
<path d="M246.105 72H244.94L247.557 64.7273H248.825L251.442 72H250.278L248.221 66.0483H248.165L246.105 72ZM246.3 69.152H250.079V70.0753H246.3V69.152Z" stroke="black" stroke-width="2" mask="url(#path-2-outside-2_57_15)"/>
<path d="M251.225 65.6719V64.7273H256.853V65.6719H254.584V72H253.49V65.6719H251.225Z" stroke="black" stroke-width="2" mask="url(#path-2-outside-2_57_15)"/>
<path d="M263.076 72.0994C262.588 72.0994 262.153 72.0154 261.769 71.8473C261.388 71.6792 261.086 71.446 260.864 71.1477C260.643 70.8471 260.525 70.4991 260.508 70.1037H261.623C261.638 70.3191 261.71 70.5062 261.84 70.6648C261.973 70.821 262.145 70.9418 262.359 71.027C262.572 71.1122 262.808 71.1548 263.069 71.1548C263.355 71.1548 263.609 71.1051 263.829 71.0057C264.051 70.9062 264.225 70.7678 264.351 70.5902C264.476 70.4103 264.539 70.2031 264.539 69.9688C264.539 69.7249 264.476 69.5107 264.351 69.326C264.228 69.139 264.047 68.9922 263.807 68.8857C263.571 68.7791 263.284 68.7259 262.948 68.7259H262.334V67.831H262.948C263.218 67.831 263.455 67.7824 263.658 67.6854C263.864 67.5883 264.025 67.4534 264.141 67.2805C264.257 67.1054 264.315 66.9006 264.315 66.6662C264.315 66.4413 264.264 66.246 264.163 66.0803C264.063 65.9122 263.921 65.7808 263.736 65.6861C263.554 65.5914 263.339 65.544 263.09 65.544C262.853 65.544 262.632 65.5878 262.426 65.6754C262.222 65.7607 262.057 65.8838 261.929 66.0447C261.801 66.2034 261.732 66.3939 261.723 66.6165H260.661C260.673 66.2235 260.789 65.8778 261.009 65.5795C261.232 65.2812 261.525 65.0481 261.89 64.88C262.254 64.7119 262.659 64.6278 263.104 64.6278C263.571 64.6278 263.973 64.719 264.312 64.9013C264.653 65.0812 264.915 65.3215 265.1 65.6222C265.287 65.9228 265.379 66.2519 265.377 66.6094C265.379 67.0166 265.266 67.3622 265.036 67.6463C264.809 67.9304 264.506 68.121 264.127 68.218V68.2749C264.61 68.3482 264.984 68.54 265.249 68.8501C265.517 69.1603 265.649 69.545 265.647 70.0043C265.649 70.4044 265.538 70.763 265.313 71.0803C265.091 71.3975 264.786 71.6473 264.4 71.8295C264.015 72.0095 263.573 72.0994 263.076 72.0994Z" stroke="black" stroke-width="2" mask="url(#path-2-outside-2_57_15)"/>
<path d="M251.778 105.159C251.345 105.159 250.972 105.102 250.659 104.989C250.349 104.875 250.096 104.725 249.9 104.538C249.703 104.351 249.556 104.146 249.459 103.923L250.372 103.547C250.436 103.651 250.521 103.761 250.627 103.877C250.736 103.995 250.883 104.096 251.068 104.179C251.255 104.262 251.495 104.303 251.789 104.303C252.191 104.303 252.524 104.205 252.787 104.009C253.049 103.814 253.181 103.504 253.181 103.078V102.006H253.113C253.049 102.122 252.957 102.251 252.836 102.393C252.718 102.535 252.555 102.658 252.346 102.762C252.138 102.866 251.867 102.918 251.533 102.918C251.102 102.918 250.714 102.818 250.368 102.616C250.025 102.413 249.753 102.113 249.551 101.718C249.353 101.32 249.253 100.831 249.253 100.251C249.253 99.6714 249.351 99.1742 249.548 98.7599C249.747 98.3456 250.019 98.0284 250.365 97.8082C250.71 97.5857 251.102 97.4744 251.54 97.4744C251.879 97.4744 252.152 97.5312 252.36 97.6449C252.569 97.7562 252.731 97.8864 252.847 98.0355C252.965 98.1847 253.056 98.3161 253.12 98.4297H253.199V97.5455H254.239V103.121C254.239 103.589 254.13 103.974 253.912 104.275C253.694 104.576 253.4 104.798 253.028 104.942C252.659 105.087 252.242 105.159 251.778 105.159ZM251.767 102.038C252.073 102.038 252.331 101.967 252.542 101.825C252.755 101.68 252.916 101.474 253.025 101.207C253.136 100.937 253.191 100.614 253.191 100.237C253.191 99.8703 253.137 99.5471 253.028 99.2678C252.919 98.9884 252.759 98.7706 252.549 98.6143C252.338 98.4557 252.078 98.3764 251.767 98.3764C251.448 98.3764 251.181 98.4593 250.968 98.625C250.755 98.7884 250.594 99.0109 250.485 99.2926C250.379 99.5743 250.326 99.8892 250.326 100.237C250.326 100.595 250.38 100.908 250.489 101.178C250.598 101.448 250.759 101.659 250.972 101.81C251.187 101.962 251.453 102.038 251.767 102.038Z" stroke="black" stroke-width="2" mask="url(#path-2-outside-2_57_15)"/>
<path id="seat-i" d="M410.863 278C335.447 281.441 212.285 232.172 178.363 143L84.3633 185.5C134.966 297.584 267.895 380.413 403.363 381L410.863 278Z" fill="#CECAC1"/>
<path d="M234.433 263.092H233.325C233.282 262.856 233.203 262.647 233.087 262.467C232.971 262.287 232.829 262.135 232.661 262.009C232.493 261.884 232.304 261.789 232.096 261.725C231.89 261.661 231.671 261.629 231.439 261.629C231.02 261.629 230.645 261.735 230.313 261.945C229.984 262.156 229.724 262.465 229.532 262.872C229.343 263.279 229.248 263.776 229.248 264.364C229.248 264.955 229.343 265.455 229.532 265.862C229.724 266.269 229.985 266.577 230.317 266.785C230.648 266.994 231.021 267.098 231.436 267.098C231.665 267.098 231.883 267.067 232.089 267.006C232.297 266.942 232.485 266.848 232.654 266.725C232.822 266.602 232.964 266.452 233.08 266.274C233.198 266.094 233.28 265.888 233.325 265.656L234.433 265.66C234.373 266.017 234.259 266.346 234.088 266.647C233.92 266.945 233.703 267.203 233.438 267.421C233.176 267.637 232.875 267.803 232.536 267.922C232.198 268.04 231.829 268.099 231.428 268.099C230.799 268.099 230.238 267.95 229.745 267.652C229.253 267.351 228.864 266.922 228.58 266.363C228.299 265.804 228.158 265.138 228.158 264.364C228.158 263.587 228.3 262.921 228.584 262.364C228.868 261.806 229.256 261.377 229.749 261.079C230.241 260.778 230.801 260.628 231.428 260.628C231.814 260.628 232.174 260.683 232.508 260.795C232.844 260.904 233.146 261.065 233.413 261.278C233.681 261.488 233.902 261.746 234.078 262.052C234.253 262.355 234.371 262.702 234.433 263.092Z" fill="black"/>
<path d="M236.261 268H235.096L237.714 260.727H238.981L241.599 268H240.434L238.378 262.048H238.321L236.261 268ZM236.457 265.152H240.235V266.075H236.457V265.152Z" fill="black"/>
<path d="M241.381 261.672V260.727H247.009V261.672H244.74V268H243.646V261.672H241.381Z" fill="black"/>
<path d="M250.7 268V267.205L253.161 264.655C253.424 264.378 253.641 264.135 253.811 263.927C253.984 263.716 254.113 263.516 254.198 263.327C254.283 263.137 254.326 262.936 254.326 262.723C254.326 262.481 254.269 262.273 254.155 262.098C254.042 261.92 253.887 261.784 253.69 261.69C253.494 261.593 253.272 261.544 253.026 261.544C252.766 261.544 252.538 261.597 252.344 261.704C252.15 261.81 252.001 261.961 251.897 262.155C251.793 262.349 251.741 262.576 251.741 262.837H250.693C250.693 262.394 250.795 262.007 250.998 261.675C251.202 261.344 251.481 261.087 251.837 260.905C252.192 260.72 252.595 260.628 253.047 260.628C253.504 260.628 253.907 260.719 254.255 260.901C254.605 261.081 254.879 261.327 255.075 261.64C255.272 261.95 255.37 262.3 255.37 262.691C255.37 262.961 255.319 263.225 255.217 263.483C255.118 263.741 254.944 264.029 254.695 264.346C254.447 264.661 254.101 265.043 253.658 265.493L252.213 267.006V267.059H255.487V268H250.7Z" fill="black"/>
<path d="M241.332 299V293.545H242.394V299H241.332ZM241.868 292.704C241.684 292.704 241.525 292.642 241.392 292.519C241.262 292.394 241.197 292.245 241.197 292.072C241.197 291.897 241.262 291.747 241.392 291.624C241.525 291.499 241.684 291.436 241.868 291.436C242.053 291.436 242.21 291.499 242.34 291.624C242.473 291.747 242.539 291.897 242.539 292.072C242.539 292.245 242.473 292.394 242.34 292.519C242.21 292.642 242.053 292.704 241.868 292.704Z" fill="black"/>
<path d="M178.831 142.822C195.733 187.252 234.887 221.785 279.283 244.786C323.678 267.787 373.236 279.217 410.841 277.501L411.403 277.475L411.362 278.036L403.862 381.036L403.828 381.502L403.361 381.5C267.716 380.912 134.598 297.985 83.9072 185.706L83.7021 185.25L84.1572 185.044L178.157 142.544L178.642 142.325L178.831 142.822Z" stroke="black"/>
<path id="seat-k" d="M403.363 402.5C301.363 402.5 137.863 351 67.3633 195L1.36328 221.5C98.3652 424 259.365 459 394.863 475L403.363 402.5Z" fill="#4A9056"/>
<path d="M151.228 347.092H150.12C150.077 346.856 149.998 346.647 149.882 346.467C149.766 346.287 149.624 346.135 149.456 346.009C149.287 345.884 149.099 345.789 148.891 345.725C148.685 345.661 148.466 345.629 148.234 345.629C147.815 345.629 147.44 345.735 147.108 345.945C146.779 346.156 146.519 346.465 146.327 346.872C146.138 347.279 146.043 347.776 146.043 348.364C146.043 348.955 146.138 349.455 146.327 349.862C146.519 350.269 146.78 350.577 147.112 350.785C147.443 350.994 147.816 351.098 148.23 351.098C148.46 351.098 148.678 351.067 148.884 351.006C149.092 350.942 149.28 350.848 149.448 350.725C149.617 350.602 149.759 350.452 149.875 350.274C149.993 350.094 150.075 349.888 150.12 349.656L151.228 349.66C151.168 350.017 151.054 350.346 150.883 350.647C150.715 350.945 150.498 351.203 150.233 351.421C149.97 351.637 149.67 351.803 149.331 351.922C148.993 352.04 148.623 352.099 148.223 352.099C147.594 352.099 147.033 351.95 146.54 351.652C146.048 351.351 145.659 350.922 145.375 350.363C145.094 349.804 144.953 349.138 144.953 348.364C144.953 347.587 145.095 346.921 145.379 346.364C145.663 345.806 146.051 345.377 146.544 345.079C147.036 344.778 147.596 344.628 148.223 344.628C148.609 344.628 148.969 344.683 149.303 344.795C149.639 344.904 149.941 345.065 150.208 345.278C150.476 345.488 150.697 345.746 150.872 346.052C151.048 346.355 151.166 346.702 151.228 347.092Z" fill="black"/>
<path d="M153.056 352H151.891L154.509 344.727H155.776L158.393 352H157.229L155.173 346.048H155.116L153.056 352ZM153.251 349.152H157.03V350.075H153.251V349.152Z" fill="black"/>
<path d="M158.176 345.672V344.727H163.804V345.672H161.535V352H160.441V345.672H158.176Z" fill="black"/>
<path d="M167.342 350.58V349.692L170.485 344.727H171.185V346.034H170.741L168.493 349.592V349.649H172.8V350.58H167.342ZM170.791 352V350.31L170.798 349.905V344.727H171.838V352H170.791Z" fill="black"/>
<path d="M157.77 381.15L157.763 379.854H157.948L160.121 377.545H161.393L158.914 380.173H158.747L157.77 381.15ZM156.794 383V375.727H157.856V383H156.794ZM160.238 383L158.285 380.408L159.017 379.665L161.542 383H160.238Z" fill="black"/>
<path d="M67.8193 194.794C138.21 350.551 301.479 402 403.363 402H403.926L403.86 402.559L395.36 475.059L395.302 475.556L394.805 475.496C327.042 467.494 252.842 454.737 183.446 418.631C114.037 382.518 49.4593 323.062 0.912109 221.716L0.681641 221.234L1.17676 221.036L67.1768 194.536L67.6221 194.357L67.8193 194.794Z" stroke="black"/>
<path id="seat-c" d="M286.863 160.5L328.863 120.5L338.363 130.5H438.363V158H403.363V213.5H338.363L286.863 195V160.5Z" fill="#FEE505"/>
<path d="M347.636 150.092H346.528C346.485 149.856 346.406 149.647 346.29 149.467C346.174 149.287 346.032 149.135 345.864 149.009C345.696 148.884 345.507 148.789 345.299 148.725C345.093 148.661 344.874 148.629 344.642 148.629C344.223 148.629 343.848 148.735 343.516 148.945C343.187 149.156 342.927 149.465 342.735 149.872C342.546 150.279 342.451 150.777 342.451 151.364C342.451 151.955 342.546 152.455 342.735 152.862C342.927 153.269 343.189 153.577 343.52 153.786C343.851 153.994 344.224 154.098 344.639 154.098C344.868 154.098 345.086 154.067 345.292 154.006C345.5 153.942 345.689 153.848 345.857 153.725C346.025 153.602 346.167 153.452 346.283 153.274C346.401 153.094 346.483 152.888 346.528 152.656L347.636 152.66C347.577 153.017 347.462 153.346 347.291 153.647C347.123 153.945 346.907 154.203 346.641 154.421C346.379 154.637 346.078 154.804 345.739 154.922C345.401 155.04 345.032 155.099 344.632 155.099C344.002 155.099 343.441 154.95 342.948 154.652C342.456 154.351 342.068 153.922 341.784 153.363C341.502 152.804 341.361 152.138 341.361 151.364C341.361 150.587 341.503 149.921 341.787 149.364C342.071 148.806 342.459 148.377 342.952 148.079C343.444 147.778 344.004 147.628 344.632 147.628C345.017 147.628 345.377 147.683 345.711 147.795C346.047 147.904 346.349 148.065 346.617 148.278C346.884 148.488 347.105 148.746 347.281 149.052C347.456 149.355 347.574 149.702 347.636 150.092Z" fill="black"/>
<path d="M349.464 155H348.3L350.917 147.727H352.185L354.802 155H353.637L351.581 149.048H351.524L349.464 155ZM349.66 152.152H353.438V153.075H349.66V152.152Z" fill="black"/>
<path d="M354.584 148.672V147.727H360.212V148.672H357.943V155H356.85V148.672H354.584Z" fill="black"/>
<path d="M366.663 147.727V155H365.562V148.828H365.519L363.779 149.964V148.913L365.594 147.727H366.663Z" fill="black"/>
<path d="M354.538 186.11C354.01 186.11 353.555 185.991 353.174 185.751C352.795 185.51 352.504 185.177 352.301 184.754C352.097 184.33 351.995 183.844 351.995 183.298C351.995 182.744 352.099 182.255 352.308 181.831C352.516 181.405 352.81 181.072 353.188 180.833C353.567 180.594 354.013 180.474 354.527 180.474C354.941 180.474 355.311 180.551 355.635 180.705C355.959 180.857 356.221 181.07 356.42 181.344C356.621 181.619 356.741 181.94 356.778 182.307H355.745C355.688 182.051 355.558 181.831 355.354 181.646C355.153 181.462 354.883 181.369 354.545 181.369C354.249 181.369 353.99 181.447 353.767 181.604C353.547 181.758 353.375 181.978 353.252 182.264C353.129 182.548 353.068 182.884 353.068 183.273C353.068 183.67 353.128 184.014 353.249 184.303C353.369 184.591 353.54 184.815 353.76 184.974C353.983 185.132 354.244 185.212 354.545 185.212C354.746 185.212 354.928 185.175 355.092 185.102C355.257 185.026 355.396 184.918 355.507 184.778C355.621 184.639 355.7 184.471 355.745 184.274H356.778C356.741 184.627 356.626 184.942 356.434 185.219C356.242 185.496 355.985 185.714 355.663 185.872C355.344 186.031 354.969 186.11 354.538 186.11Z" fill="black"/>
<path d="M329.226 120.155L338.578 130H438.863V158.5H403.863V214H338.276L338.194 213.971L286.694 195.471L286.363 195.352V160.286L286.519 160.138L328.519 120.138L328.881 119.793L329.226 120.155Z" stroke="black"/>
<path id="seat-stage" d="M339.863 125V62H403.863V94H438.363V125H339.863Z" fill="#FEE505"/>
<path d="M366.636 76.0923H365.528C365.485 75.8556 365.406 75.6473 365.29 75.4673C365.174 75.2874 365.032 75.1347 364.864 75.0092C364.696 74.8838 364.507 74.7891 364.299 74.7251C364.093 74.6612 363.874 74.6293 363.642 74.6293C363.223 74.6293 362.848 74.7346 362.516 74.9453C362.187 75.156 361.927 75.465 361.735 75.8722C361.546 76.2794 361.451 76.7765 361.451 77.3636C361.451 77.9555 361.546 78.455 361.735 78.8622C361.927 79.2694 362.189 79.5772 362.52 79.7855C362.851 79.9938 363.224 80.098 363.639 80.098C363.868 80.098 364.086 80.0672 364.292 80.0057C364.5 79.9418 364.689 79.8482 364.857 79.7251C365.025 79.602 365.167 79.4517 365.283 79.2741C365.401 79.0942 365.483 78.8883 365.528 78.6562L366.636 78.6598C366.577 79.0173 366.462 79.3464 366.291 79.647C366.123 79.9453 365.907 80.2034 365.641 80.4212C365.379 80.6366 365.078 80.8035 364.739 80.9219C364.401 81.0402 364.032 81.0994 363.632 81.0994C363.002 81.0994 362.441 80.9503 361.948 80.652C361.456 80.3513 361.068 79.9216 360.784 79.3629C360.502 78.8042 360.361 78.1378 360.361 77.3636C360.361 76.5871 360.503 75.9207 360.787 75.3643C361.071 74.8056 361.459 74.3771 361.952 74.0788C362.444 73.7782 363.004 73.6278 363.632 73.6278C364.017 73.6278 364.377 73.6835 364.711 73.7947C365.047 73.9036 365.349 74.0646 365.617 74.2777C365.884 74.4884 366.105 74.7464 366.281 75.0518C366.456 75.3549 366.574 75.7017 366.636 76.0923Z" fill="black"/>
<path d="M368.464 81H367.3L369.917 73.7273H371.184L373.802 81H372.637L370.581 75.0483H370.524L368.464 81ZM368.66 78.152H372.438V79.0753H368.66V78.152Z" fill="black"/>
<path d="M373.584 74.6719V73.7273H379.212V74.6719H376.943V81H375.85V74.6719H373.584Z" fill="black"/>
<path d="M385.663 73.7273V81H384.562V74.8281H384.519L382.779 75.9645V74.9134L384.594 73.7273H385.663Z" fill="black"/>
<path d="M371.032 112V104.727H372.094V107.43H372.158C372.22 107.316 372.308 107.185 372.424 107.036C372.54 106.886 372.701 106.756 372.907 106.645C373.113 106.531 373.386 106.474 373.724 106.474C374.165 106.474 374.557 106.586 374.903 106.808C375.249 107.031 375.52 107.352 375.716 107.771C375.915 108.19 376.015 108.694 376.015 109.283C376.015 109.873 375.916 110.378 375.72 110.8C375.523 111.219 375.254 111.542 374.91 111.769C374.567 111.994 374.175 112.107 373.735 112.107C373.403 112.107 373.132 112.051 372.922 111.94C372.713 111.828 372.55 111.698 372.432 111.549C372.313 111.4 372.222 111.267 372.158 111.151H372.069V112H371.032ZM372.073 109.273C372.073 109.656 372.129 109.992 372.24 110.281C372.351 110.57 372.512 110.796 372.723 110.96C372.933 111.121 373.191 111.201 373.497 111.201C373.814 111.201 374.079 111.117 374.292 110.949C374.505 110.778 374.666 110.548 374.775 110.256C374.887 109.965 374.942 109.637 374.942 109.273C374.942 108.913 374.888 108.59 374.779 108.303C374.672 108.017 374.511 107.791 374.296 107.625C374.083 107.459 373.816 107.376 373.497 107.376C373.189 107.376 372.929 107.456 372.716 107.614C372.505 107.773 372.345 107.994 372.236 108.278C372.127 108.562 372.073 108.894 372.073 109.273Z" fill="black"/>
<path d="M404.363 61.5V93.5H438.863V125.5H339.363V61.5H404.363Z" stroke="black"/>
<path id="seat-e" d="M596.863 152.5V1H531.863L546.363 49H554.863V112.5L596.863 152.5Z" fill="#FEE505"/>
<path d="M568.636 45.0923H567.528C567.485 44.8556 567.406 44.6473 567.29 44.4673C567.174 44.2874 567.032 44.1347 566.864 44.0092C566.696 43.8838 566.507 43.7891 566.299 43.7251C566.093 43.6612 565.874 43.6293 565.642 43.6293C565.223 43.6293 564.848 43.7346 564.516 43.9453C564.187 44.156 563.927 44.465 563.735 44.8722C563.546 45.2794 563.451 45.7765 563.451 46.3636C563.451 46.9555 563.546 47.455 563.735 47.8622C563.927 48.2694 564.189 48.5772 564.52 48.7855C564.851 48.9938 565.224 49.098 565.639 49.098C565.868 49.098 566.086 49.0672 566.292 49.0057C566.5 48.9418 566.689 48.8482 566.857 48.7251C567.025 48.602 567.167 48.4517 567.283 48.2741C567.401 48.0942 567.483 47.8883 567.528 47.6562L568.636 47.6598C568.577 48.0173 568.462 48.3464 568.291 48.647C568.123 48.9453 567.907 49.2034 567.641 49.4212C567.379 49.6366 567.078 49.8035 566.739 49.9219C566.401 50.0402 566.032 50.0994 565.632 50.0994C565.002 50.0994 564.441 49.9503 563.948 49.652C563.456 49.3513 563.068 48.9216 562.784 48.3629C562.502 47.8042 562.361 47.1378 562.361 46.3636C562.361 45.5871 562.503 44.9207 562.787 44.3643C563.071 43.8056 563.459 43.3771 563.952 43.0788C564.444 42.7782 565.004 42.6278 565.632 42.6278C566.017 42.6278 566.377 42.6835 566.711 42.7947C567.047 42.9036 567.349 43.0646 567.617 43.2777C567.884 43.4884 568.105 43.7464 568.281 44.0518C568.456 44.3549 568.574 44.7017 568.636 45.0923Z" fill="black"/>
<path d="M570.464 50H569.3L571.917 42.7273H573.184L575.802 50H574.637L572.581 44.0483H572.524L570.464 50ZM570.66 47.152H574.438V48.0753H570.66V47.152Z" fill="black"/>
<path d="M575.584 43.6719V42.7273H581.212V43.6719H578.943V50H577.85V43.6719H575.584Z" fill="black"/>
<path d="M587.663 42.7273V50H586.562V43.8281H586.519L584.779 44.9645V43.9134L586.594 42.7273H587.663Z" fill="black"/>
<path d="M575.493 81.1101C574.956 81.1101 574.493 80.9953 574.105 80.7656C573.719 80.5336 573.421 80.2081 573.21 79.7891C573.002 79.3677 572.897 78.874 572.897 78.3082C572.897 77.7495 573.002 77.2571 573.21 76.831C573.421 76.4048 573.714 76.0722 574.091 75.8331C574.469 75.594 574.912 75.4744 575.419 75.4744C575.727 75.4744 576.025 75.5253 576.314 75.6271C576.602 75.7289 576.862 75.8887 577.091 76.1065C577.321 76.3243 577.502 76.6072 577.635 76.9553C577.767 77.3009 577.834 77.7211 577.834 78.2159V78.5923H573.498V77.7969H576.793C576.793 77.5175 576.736 77.2701 576.623 77.0547C576.509 76.8369 576.349 76.6652 576.143 76.5398C575.94 76.4143 575.7 76.3516 575.426 76.3516C575.128 76.3516 574.867 76.425 574.645 76.5717C574.424 76.7161 574.254 76.9055 574.133 77.1399C574.015 77.3719 573.956 77.6241 573.956 77.8963V78.5178C573.956 78.8823 574.02 79.1925 574.147 79.4482C574.278 79.7038 574.459 79.8991 574.691 80.0341C574.923 80.1667 575.194 80.233 575.504 80.233C575.705 80.233 575.889 80.2045 576.054 80.1477C576.22 80.0885 576.363 80.0009 576.484 79.8849C576.605 79.7689 576.697 79.6257 576.761 79.4553L577.766 79.6364C577.686 79.9323 577.541 80.1915 577.333 80.4141C577.127 80.6342 576.868 80.8059 576.555 80.929C576.245 81.0497 575.891 81.1101 575.493 81.1101Z" fill="black"/>
<path d="M597.363 0.5V153.667L596.519 152.862L554.519 112.862L554.363 112.714V49.5H545.992L545.885 49.1445L531.385 1.14453L531.189 0.5H597.363Z" stroke="black"/>
<mask id="path-13-outside-3_57_15" maskUnits="userSpaceOnUse" x="603.363" y="34" width="54" height="143" fill="black">
<rect fill="white" x="603.363" y="34" width="54" height="143"/>
<path d="M604.363 176V35H656.363V146H633.863L617.863 160.5V176H604.363Z"/>
<path d="M624.276 67.0923H623.168C623.126 66.8556 623.047 66.6473 622.931 66.4673C622.815 66.2874 622.672 66.1347 622.504 66.0092C622.336 65.8838 622.148 65.7891 621.94 65.7251C621.734 65.6612 621.515 65.6293 621.283 65.6293C620.864 65.6293 620.489 65.7346 620.157 65.9453C619.828 66.156 619.568 66.465 619.376 66.8722C619.186 67.2794 619.092 67.7765 619.092 68.3636C619.092 68.9555 619.186 69.455 619.376 69.8622C619.568 70.2694 619.829 70.5772 620.161 70.7855C620.492 70.9938 620.865 71.098 621.279 71.098C621.509 71.098 621.727 71.0672 621.933 71.0057C622.141 70.9418 622.329 70.8482 622.497 70.7251C622.665 70.602 622.807 70.4517 622.923 70.2741C623.042 70.0942 623.123 69.8883 623.168 69.6562L624.276 69.6598C624.217 70.0173 624.102 70.3464 623.932 70.647C623.764 70.9453 623.547 71.2034 623.282 71.4212C623.019 71.6366 622.719 71.8035 622.38 71.9219C622.042 72.0402 621.672 72.0994 621.272 72.0994C620.642 72.0994 620.081 71.9503 619.589 71.652C619.096 71.3513 618.708 70.9216 618.424 70.3629C618.142 69.8042 618.002 69.1378 618.002 68.3636C618.002 67.5871 618.144 66.9207 618.428 66.3643C618.712 65.8056 619.1 65.3771 619.592 65.0788C620.085 64.7782 620.645 64.6278 621.272 64.6278C621.658 64.6278 622.018 64.6835 622.352 64.7947C622.688 64.9036 622.99 65.0646 623.257 65.2777C623.525 65.4884 623.746 65.7464 623.921 66.0518C624.096 66.3549 624.215 66.7017 624.276 67.0923Z"/>
<path d="M626.105 72H624.94L627.557 64.7273H628.825L631.442 72H630.278L628.221 66.0483H628.165L626.105 72ZM626.3 69.152H630.079V70.0753H626.3V69.152Z"/>
<path d="M631.225 65.6719V64.7273H636.853V65.6719H634.584V72H633.49V65.6719H631.225Z"/>
<path d="M643.076 72.0994C642.588 72.0994 642.153 72.0154 641.769 71.8473C641.388 71.6792 641.086 71.446 640.864 71.1477C640.643 70.8471 640.525 70.4991 640.508 70.1037H641.623C641.638 70.3191 641.71 70.5062 641.84 70.6648C641.973 70.821 642.145 70.9418 642.359 71.027C642.572 71.1122 642.808 71.1548 643.069 71.1548C643.355 71.1548 643.609 71.1051 643.829 71.0057C644.051 70.9062 644.225 70.7678 644.351 70.5902C644.476 70.4103 644.539 70.2031 644.539 69.9688C644.539 69.7249 644.476 69.5107 644.351 69.326C644.228 69.139 644.047 68.9922 643.807 68.8857C643.571 68.7791 643.284 68.7259 642.948 68.7259H642.334V67.831H642.948C643.218 67.831 643.455 67.7824 643.658 67.6854C643.864 67.5883 644.025 67.4534 644.141 67.2805C644.257 67.1054 644.315 66.9006 644.315 66.6662C644.315 66.4413 644.264 66.246 644.163 66.0803C644.063 65.9122 643.921 65.7808 643.736 65.6861C643.554 65.5914 643.339 65.544 643.09 65.544C642.853 65.544 642.632 65.5878 642.426 65.6754C642.222 65.7607 642.057 65.8838 641.929 66.0447C641.801 66.2034 641.732 66.3939 641.723 66.6165H640.661C640.673 66.2235 640.789 65.8778 641.009 65.5795C641.232 65.2812 641.525 65.0481 641.89 64.88C642.254 64.7119 642.659 64.6278 643.104 64.6278C643.571 64.6278 643.973 64.719 644.312 64.9013C644.653 65.0812 644.915 65.3215 645.1 65.6222C645.287 65.9228 645.379 66.2519 645.377 66.6094C645.379 67.0166 645.266 67.3622 645.036 67.6463C644.809 67.9304 644.506 68.121 644.127 68.218V68.2749C644.61 68.3482 644.984 68.54 645.249 68.8501C645.517 69.1603 645.649 69.545 645.647 70.0043C645.649 70.4044 645.538 70.763 645.313 71.0803C645.091 71.3975 644.786 71.6473 644.4 71.8295C644.015 72.0095 643.573 72.0994 643.076 72.0994Z"/>
<path d="M630.631 99.7614V103H629.569V95.7273H630.617V98.4332H630.684C630.812 98.1397 631.007 97.9065 631.27 97.7337C631.533 97.5608 631.876 97.4744 632.3 97.4744C632.674 97.4744 633.001 97.5514 633.28 97.7053C633.562 97.8591 633.78 98.0888 633.934 98.3942C634.09 98.6972 634.168 99.076 634.168 99.5305V103H633.106V99.6584C633.106 99.2583 633.003 98.9482 632.797 98.728C632.591 98.5054 632.305 98.3942 631.938 98.3942C631.687 98.3942 631.462 98.4474 631.263 98.554C631.067 98.6605 630.912 98.8168 630.798 99.0227C630.687 99.2263 630.631 99.4725 630.631 99.7614Z"/>
</mask>
<path id="seat-h" d="M604.363 176V35H656.363V146H633.863L617.863 160.5V176H604.363Z" fill="#A6C8B8"/>
<path d="M624.276 67.0923H623.168C623.126 66.8556 623.047 66.6473 622.931 66.4673C622.815 66.2874 622.672 66.1347 622.504 66.0092C622.336 65.8838 622.148 65.7891 621.94 65.7251C621.734 65.6612 621.515 65.6293 621.283 65.6293C620.864 65.6293 620.489 65.7346 620.157 65.9453C619.828 66.156 619.568 66.465 619.376 66.8722C619.186 67.2794 619.092 67.7765 619.092 68.3636C619.092 68.9555 619.186 69.455 619.376 69.8622C619.568 70.2694 619.829 70.5772 620.161 70.7855C620.492 70.9938 620.865 71.098 621.279 71.098C621.509 71.098 621.727 71.0672 621.933 71.0057C622.141 70.9418 622.329 70.8482 622.497 70.7251C622.665 70.602 622.807 70.4517 622.923 70.2741C623.042 70.0942 623.123 69.8883 623.168 69.6562L624.276 69.6598C624.217 70.0173 624.102 70.3464 623.932 70.647C623.764 70.9453 623.547 71.2034 623.282 71.4212C623.019 71.6366 622.719 71.8035 622.38 71.9219C622.042 72.0402 621.672 72.0994 621.272 72.0994C620.642 72.0994 620.081 71.9503 619.589 71.652C619.096 71.3513 618.708 70.9216 618.424 70.3629C618.142 69.8042 618.002 69.1378 618.002 68.3636C618.002 67.5871 618.144 66.9207 618.428 66.3643C618.712 65.8056 619.1 65.3771 619.592 65.0788C620.085 64.7782 620.645 64.6278 621.272 64.6278C621.658 64.6278 622.018 64.6835 622.352 64.7947C622.688 64.9036 622.99 65.0646 623.257 65.2777C623.525 65.4884 623.746 65.7464 623.921 66.0518C624.096 66.3549 624.215 66.7017 624.276 67.0923Z" fill="black"/>
<path d="M626.105 72H624.94L627.557 64.7273H628.825L631.442 72H630.278L628.221 66.0483H628.165L626.105 72ZM626.3 69.152H630.079V70.0753H626.3V69.152Z" fill="black"/>
<path d="M631.225 65.6719V64.7273H636.853V65.6719H634.584V72H633.49V65.6719H631.225Z" fill="black"/>
<path d="M643.076 72.0994C642.588 72.0994 642.153 72.0154 641.769 71.8473C641.388 71.6792 641.086 71.446 640.864 71.1477C640.643 70.8471 640.525 70.4991 640.508 70.1037H641.623C641.638 70.3191 641.71 70.5062 641.84 70.6648C641.973 70.821 642.145 70.9418 642.359 71.027C642.572 71.1122 642.808 71.1548 643.069 71.1548C643.355 71.1548 643.609 71.1051 643.829 71.0057C644.051 70.9062 644.225 70.7678 644.351 70.5902C644.476 70.4103 644.539 70.2031 644.539 69.9688C644.539 69.7249 644.476 69.5107 644.351 69.326C644.228 69.139 644.047 68.9922 643.807 68.8857C643.571 68.7791 643.284 68.7259 642.948 68.7259H642.334V67.831H642.948C643.218 67.831 643.455 67.7824 643.658 67.6854C643.864 67.5883 644.025 67.4534 644.141 67.2805C644.257 67.1054 644.315 66.9006 644.315 66.6662C644.315 66.4413 644.264 66.246 644.163 66.0803C644.063 65.9122 643.921 65.7808 643.736 65.6861C643.554 65.5914 643.339 65.544 643.09 65.544C642.853 65.544 642.632 65.5878 642.426 65.6754C642.222 65.7607 642.057 65.8838 641.929 66.0447C641.801 66.2034 641.732 66.3939 641.723 66.6165H640.661C640.673 66.2235 640.789 65.8778 641.009 65.5795C641.232 65.2812 641.525 65.0481 641.89 64.88C642.254 64.7119 642.659 64.6278 643.104 64.6278C643.571 64.6278 643.973 64.719 644.312 64.9013C644.653 65.0812 644.915 65.3215 645.1 65.6222C645.287 65.9228 645.379 66.2519 645.377 66.6094C645.379 67.0166 645.266 67.3622 645.036 67.6463C644.809 67.9304 644.506 68.121 644.127 68.218V68.2749C644.61 68.3482 644.984 68.54 645.249 68.8501C645.517 69.1603 645.649 69.545 645.647 70.0043C645.649 70.4044 645.538 70.763 645.313 71.0803C645.091 71.3975 644.786 71.6473 644.4 71.8295C644.015 72.0095 643.573 72.0994 643.076 72.0994Z" fill="black"/>
<path d="M630.631 99.7614V103H629.569V95.7273H630.617V98.4332H630.684C630.812 98.1397 631.007 97.9065 631.27 97.7337C631.533 97.5608 631.876 97.4744 632.3 97.4744C632.674 97.4744 633.001 97.5514 633.28 97.7053C633.562 97.8591 633.78 98.0888 633.934 98.3942C634.09 98.6972 634.168 99.076 634.168 99.5305V103H633.106V99.6584C633.106 99.2583 633.003 98.9482 632.797 98.728C632.591 98.5054 632.305 98.3942 631.938 98.3942C631.687 98.3942 631.462 98.4474 631.263 98.554C631.067 98.6605 630.912 98.8168 630.798 99.0227C630.687 99.2263 630.631 99.4725 630.631 99.7614Z" fill="black"/>
<path d="M604.363 176V35H656.363V146H633.863L617.863 160.5V176H604.363Z" stroke="black" stroke-width="2" mask="url(#path-13-outside-3_57_15)"/>
<path d="M624.276 67.0923H623.168C623.126 66.8556 623.047 66.6473 622.931 66.4673C622.815 66.2874 622.672 66.1347 622.504 66.0092C622.336 65.8838 622.148 65.7891 621.94 65.7251C621.734 65.6612 621.515 65.6293 621.283 65.6293C620.864 65.6293 620.489 65.7346 620.157 65.9453C619.828 66.156 619.568 66.465 619.376 66.8722C619.186 67.2794 619.092 67.7765 619.092 68.3636C619.092 68.9555 619.186 69.455 619.376 69.8622C619.568 70.2694 619.829 70.5772 620.161 70.7855C620.492 70.9938 620.865 71.098 621.279 71.098C621.509 71.098 621.727 71.0672 621.933 71.0057C622.141 70.9418 622.329 70.8482 622.497 70.7251C622.665 70.602 622.807 70.4517 622.923 70.2741C623.042 70.0942 623.123 69.8883 623.168 69.6562L624.276 69.6598C624.217 70.0173 624.102 70.3464 623.932 70.647C623.764 70.9453 623.547 71.2034 623.282 71.4212C623.019 71.6366 622.719 71.8035 622.38 71.9219C622.042 72.0402 621.672 72.0994 621.272 72.0994C620.642 72.0994 620.081 71.9503 619.589 71.652C619.096 71.3513 618.708 70.9216 618.424 70.3629C618.142 69.8042 618.002 69.1378 618.002 68.3636C618.002 67.5871 618.144 66.9207 618.428 66.3643C618.712 65.8056 619.1 65.3771 619.592 65.0788C620.085 64.7782 620.645 64.6278 621.272 64.6278C621.658 64.6278 622.018 64.6835 622.352 64.7947C622.688 64.9036 622.99 65.0646 623.257 65.2777C623.525 65.4884 623.746 65.7464 623.921 66.0518C624.096 66.3549 624.215 66.7017 624.276 67.0923Z" stroke="black" stroke-width="2" mask="url(#path-13-outside-3_57_15)"/>
<path d="M626.105 72H624.94L627.557 64.7273H628.825L631.442 72H630.278L628.221 66.0483H628.165L626.105 72ZM626.3 69.152H630.079V70.0753H626.3V69.152Z" stroke="black" stroke-width="2" mask="url(#path-13-outside-3_57_15)"/>
<path d="M631.225 65.6719V64.7273H636.853V65.6719H634.584V72H633.49V65.6719H631.225Z" stroke="black" stroke-width="2" mask="url(#path-13-outside-3_57_15)"/>
<path d="M643.076 72.0994C642.588 72.0994 642.153 72.0154 641.769 71.8473C641.388 71.6792 641.086 71.446 640.864 71.1477C640.643 70.8471 640.525 70.4991 640.508 70.1037H641.623C641.638 70.3191 641.71 70.5062 641.84 70.6648C641.973 70.821 642.145 70.9418 642.359 71.027C642.572 71.1122 642.808 71.1548 643.069 71.1548C643.355 71.1548 643.609 71.1051 643.829 71.0057C644.051 70.9062 644.225 70.7678 644.351 70.5902C644.476 70.4103 644.539 70.2031 644.539 69.9688C644.539 69.7249 644.476 69.5107 644.351 69.326C644.228 69.139 644.047 68.9922 643.807 68.8857C643.571 68.7791 643.284 68.7259 642.948 68.7259H642.334V67.831H642.948C643.218 67.831 643.455 67.7824 643.658 67.6854C643.864 67.5883 644.025 67.4534 644.141 67.2805C644.257 67.1054 644.315 66.9006 644.315 66.6662C644.315 66.4413 644.264 66.246 644.163 66.0803C644.063 65.9122 643.921 65.7808 643.736 65.6861C643.554 65.5914 643.339 65.544 643.09 65.544C642.853 65.544 642.632 65.5878 642.426 65.6754C642.222 65.7607 642.057 65.8838 641.929 66.0447C641.801 66.2034 641.732 66.3939 641.723 66.6165H640.661C640.673 66.2235 640.789 65.8778 641.009 65.5795C641.232 65.2812 641.525 65.0481 641.89 64.88C642.254 64.7119 642.659 64.6278 643.104 64.6278C643.571 64.6278 643.973 64.719 644.312 64.9013C644.653 65.0812 644.915 65.3215 645.1 65.6222C645.287 65.9228 645.379 66.2519 645.377 66.6094C645.379 67.0166 645.266 67.3622 645.036 67.6463C644.809 67.9304 644.506 68.121 644.127 68.218V68.2749C644.61 68.3482 644.984 68.54 645.249 68.8501C645.517 69.1603 645.649 69.545 645.647 70.0043C645.649 70.4044 645.538 70.763 645.313 71.0803C645.091 71.3975 644.786 71.6473 644.4 71.8295C644.015 72.0095 643.573 72.0994 643.076 72.0994Z" stroke="black" stroke-width="2" mask="url(#path-13-outside-3_57_15)"/>
<path d="M630.631 99.7614V103H629.569V95.7273H630.617V98.4332H630.684C630.812 98.1397 631.007 97.9065 631.27 97.7337C631.533 97.5608 631.876 97.4744 632.3 97.4744C632.674 97.4744 633.001 97.5514 633.28 97.7053C633.562 97.8591 633.78 98.0888 633.934 98.3942C634.09 98.6972 634.168 99.076 634.168 99.5305V103H633.106V99.6584C633.106 99.2583 633.003 98.9482 632.797 98.728C632.591 98.5054 632.305 98.3942 631.938 98.3942C631.687 98.3942 631.462 98.4474 631.263 98.554C631.067 98.6605 630.912 98.8168 630.798 99.0227C630.687 99.2263 630.631 99.4725 630.631 99.7614Z" stroke="black" stroke-width="2" mask="url(#path-13-outside-3_57_15)"/>
<mask id="path-14-outside-4_57_15" maskUnits="userSpaceOnUse" x="470.863" y="141" width="330" height="242" fill="black">
<rect fill="white" x="470.863" y="141" width="330" height="242"/>
<path d="M472.863 278C548.279 281.441 671.441 232.172 705.363 143L799.363 185.5C748.761 297.584 615.832 380.413 480.363 381L472.863 278Z"/>
<path d="M634.433 263.092H633.325C633.282 262.856 633.203 262.647 633.087 262.467C632.971 262.287 632.829 262.135 632.661 262.009C632.493 261.884 632.304 261.789 632.096 261.725C631.89 261.661 631.671 261.629 631.439 261.629C631.02 261.629 630.645 261.735 630.313 261.945C629.984 262.156 629.724 262.465 629.532 262.872C629.343 263.279 629.248 263.776 629.248 264.364C629.248 264.955 629.343 265.455 629.532 265.862C629.724 266.269 629.985 266.577 630.317 266.785C630.648 266.994 631.021 267.098 631.435 267.098C631.665 267.098 631.883 267.067 632.089 267.006C632.297 266.942 632.485 266.848 632.654 266.725C632.822 266.602 632.964 266.452 633.08 266.274C633.198 266.094 633.28 265.888 633.325 265.656L634.433 265.66C634.373 266.017 634.259 266.346 634.088 266.647C633.92 266.945 633.703 267.203 633.438 267.421C633.176 267.637 632.875 267.803 632.536 267.922C632.198 268.04 631.828 268.099 631.428 268.099C630.799 268.099 630.238 267.95 629.745 267.652C629.253 267.351 628.864 266.922 628.58 266.363C628.299 265.804 628.158 265.138 628.158 264.364C628.158 263.587 628.3 262.921 628.584 262.364C628.868 261.806 629.256 261.377 629.749 261.079C630.241 260.778 630.801 260.628 631.428 260.628C631.814 260.628 632.174 260.683 632.508 260.795C632.844 260.904 633.146 261.065 633.413 261.278C633.681 261.488 633.902 261.746 634.078 262.052C634.253 262.355 634.371 262.702 634.433 263.092Z"/>
<path d="M636.261 268H635.096L637.714 260.727H638.981L641.599 268H640.434L638.378 262.048H638.321L636.261 268ZM636.456 265.152H640.235V266.075H636.456V265.152Z"/>
<path d="M641.381 261.672V260.727H647.009V261.672H644.74V268H643.646V261.672H641.381Z"/>
<path d="M650.7 268V267.205L653.161 264.655C653.424 264.378 653.64 264.135 653.811 263.927C653.984 263.716 654.113 263.516 654.198 263.327C654.283 263.137 654.326 262.936 654.326 262.723C654.326 262.481 654.269 262.273 654.155 262.098C654.042 261.92 653.887 261.784 653.69 261.69C653.494 261.593 653.272 261.544 653.026 261.544C652.766 261.544 652.538 261.597 652.344 261.704C652.15 261.81 652.001 261.961 651.897 262.155C651.793 262.349 651.741 262.576 651.741 262.837H650.693C650.693 262.394 650.795 262.007 650.998 261.675C651.202 261.344 651.481 261.087 651.837 260.905C652.192 260.72 652.595 260.628 653.047 260.628C653.504 260.628 653.907 260.719 654.255 260.901C654.605 261.081 654.879 261.327 655.075 261.64C655.272 261.95 655.37 262.3 655.37 262.691C655.37 262.961 655.319 263.225 655.217 263.483C655.118 263.741 654.944 264.029 654.695 264.346C654.447 264.661 654.101 265.043 653.658 265.493L652.213 267.006V267.059H655.487V268H650.7Z"/>
<path d="M641.332 293.545H642.394V299.355C642.394 299.72 642.327 300.027 642.195 300.278C642.065 300.529 641.871 300.72 641.612 300.85C641.357 300.98 641.041 301.045 640.664 301.045C640.626 301.045 640.591 301.045 640.558 301.045C640.522 301.045 640.486 301.044 640.448 301.042V300.129C640.481 300.129 640.51 300.129 640.536 300.129C640.56 300.129 640.587 300.129 640.618 300.129C640.869 300.129 641.05 300.062 641.161 299.927C641.275 299.794 641.332 299.601 641.332 299.348V293.545ZM641.857 292.704C641.673 292.704 641.514 292.642 641.382 292.519C641.251 292.394 641.186 292.245 641.186 292.072C641.186 291.897 641.251 291.747 641.382 291.624C641.514 291.499 641.673 291.436 641.857 291.436C642.042 291.436 642.2 291.499 642.33 291.624C642.462 291.747 642.529 291.897 642.529 292.072C642.529 292.245 642.462 292.394 642.33 292.519C642.2 292.642 642.042 292.704 641.857 292.704Z"/>
</mask>
<path id="seat-j" d="M472.863 278C548.279 281.441 671.441 232.172 705.363 143L799.363 185.5C748.761 297.584 615.832 380.413 480.363 381L472.863 278Z" fill="#CECAC1"/>
<path d="M634.433 263.092H633.325C633.282 262.856 633.203 262.647 633.087 262.467C632.971 262.287 632.829 262.135 632.661 262.009C632.493 261.884 632.304 261.789 632.096 261.725C631.89 261.661 631.671 261.629 631.439 261.629C631.02 261.629 630.645 261.735 630.313 261.945C629.984 262.156 629.724 262.465 629.532 262.872C629.343 263.279 629.248 263.776 629.248 264.364C629.248 264.955 629.343 265.455 629.532 265.862C629.724 266.269 629.985 266.577 630.317 266.785C630.648 266.994 631.021 267.098 631.435 267.098C631.665 267.098 631.883 267.067 632.089 267.006C632.297 266.942 632.485 266.848 632.654 266.725C632.822 266.602 632.964 266.452 633.08 266.274C633.198 266.094 633.28 265.888 633.325 265.656L634.433 265.66C634.373 266.017 634.259 266.346 634.088 266.647C633.92 266.945 633.703 267.203 633.438 267.421C633.176 267.637 632.875 267.803 632.536 267.922C632.198 268.04 631.828 268.099 631.428 268.099C630.799 268.099 630.238 267.95 629.745 267.652C629.253 267.351 628.864 266.922 628.58 266.363C628.299 265.804 628.158 265.138 628.158 264.364C628.158 263.587 628.3 262.921 628.584 262.364C628.868 261.806 629.256 261.377 629.749 261.079C630.241 260.778 630.801 260.628 631.428 260.628C631.814 260.628 632.174 260.683 632.508 260.795C632.844 260.904 633.146 261.065 633.413 261.278C633.681 261.488 633.902 261.746 634.078 262.052C634.253 262.355 634.371 262.702 634.433 263.092Z" fill="black"/>
<path d="M636.261 268H635.096L637.714 260.727H638.981L641.599 268H640.434L638.378 262.048H638.321L636.261 268ZM636.456 265.152H640.235V266.075H636.456V265.152Z" fill="black"/>
<path d="M641.381 261.672V260.727H647.009V261.672H644.74V268H643.646V261.672H641.381Z" fill="black"/>
<path d="M650.7 268V267.205L653.161 264.655C653.424 264.378 653.64 264.135 653.811 263.927C653.984 263.716 654.113 263.516 654.198 263.327C654.283 263.137 654.326 262.936 654.326 262.723C654.326 262.481 654.269 262.273 654.155 262.098C654.042 261.92 653.887 261.784 653.69 261.69C653.494 261.593 653.272 261.544 653.026 261.544C652.766 261.544 652.538 261.597 652.344 261.704C652.15 261.81 652.001 261.961 651.897 262.155C651.793 262.349 651.741 262.576 651.741 262.837H650.693C650.693 262.394 650.795 262.007 650.998 261.675C651.202 261.344 651.481 261.087 651.837 260.905C652.192 260.72 652.595 260.628 653.047 260.628C653.504 260.628 653.907 260.719 654.255 260.901C654.605 261.081 654.879 261.327 655.075 261.64C655.272 261.95 655.37 262.3 655.37 262.691C655.37 262.961 655.319 263.225 655.217 263.483C655.118 263.741 654.944 264.029 654.695 264.346C654.447 264.661 654.101 265.043 653.658 265.493L652.213 267.006V267.059H655.487V268H650.7Z" fill="black"/>
<path d="M641.332 293.545H642.394V299.355C642.394 299.72 642.327 300.027 642.195 300.278C642.065 300.529 641.871 300.72 641.612 300.85C641.357 300.98 641.041 301.045 640.664 301.045C640.626 301.045 640.591 301.045 640.558 301.045C640.522 301.045 640.486 301.044 640.448 301.042V300.129C640.481 300.129 640.51 300.129 640.536 300.129C640.56 300.129 640.587 300.129 640.618 300.129C640.869 300.129 641.05 300.062 641.161 299.927C641.275 299.794 641.332 299.601 641.332 299.348V293.545ZM641.857 292.704C641.673 292.704 641.514 292.642 641.382 292.519C641.251 292.394 641.186 292.245 641.186 292.072C641.186 291.897 641.251 291.747 641.382 291.624C641.514 291.499 641.673 291.436 641.857 291.436C642.042 291.436 642.2 291.499 642.33 291.624C642.462 291.747 642.529 291.897 642.529 292.072C642.529 292.245 642.462 292.394 642.33 292.519C642.2 292.642 642.042 292.704 641.857 292.704Z" fill="black"/>
<path d="M472.863 278C548.279 281.441 671.441 232.172 705.363 143L799.363 185.5C748.761 297.584 615.832 380.413 480.363 381L472.863 278Z" stroke="black" stroke-width="2" mask="url(#path-14-outside-4_57_15)"/>
<path d="M634.433 263.092H633.325C633.282 262.856 633.203 262.647 633.087 262.467C632.971 262.287 632.829 262.135 632.661 262.009C632.493 261.884 632.304 261.789 632.096 261.725C631.89 261.661 631.671 261.629 631.439 261.629C631.02 261.629 630.645 261.735 630.313 261.945C629.984 262.156 629.724 262.465 629.532 262.872C629.343 263.279 629.248 263.776 629.248 264.364C629.248 264.955 629.343 265.455 629.532 265.862C629.724 266.269 629.985 266.577 630.317 266.785C630.648 266.994 631.021 267.098 631.435 267.098C631.665 267.098 631.883 267.067 632.089 267.006C632.297 266.942 632.485 266.848 632.654 266.725C632.822 266.602 632.964 266.452 633.08 266.274C633.198 266.094 633.28 265.888 633.325 265.656L634.433 265.66C634.373 266.017 634.259 266.346 634.088 266.647C633.92 266.945 633.703 267.203 633.438 267.421C633.176 267.637 632.875 267.803 632.536 267.922C632.198 268.04 631.828 268.099 631.428 268.099C630.799 268.099 630.238 267.95 629.745 267.652C629.253 267.351 628.864 266.922 628.58 266.363C628.299 265.804 628.158 265.138 628.158 264.364C628.158 263.587 628.3 262.921 628.584 262.364C628.868 261.806 629.256 261.377 629.749 261.079C630.241 260.778 630.801 260.628 631.428 260.628C631.814 260.628 632.174 260.683 632.508 260.795C632.844 260.904 633.146 261.065 633.413 261.278C633.681 261.488 633.902 261.746 634.078 262.052C634.253 262.355 634.371 262.702 634.433 263.092Z" stroke="black" stroke-width="2" mask="url(#path-14-outside-4_57_15)"/>
<path d="M636.261 268H635.096L637.714 260.727H638.981L641.599 268H640.434L638.378 262.048H638.321L636.261 268ZM636.456 265.152H640.235V266.075H636.456V265.152Z" stroke="black" stroke-width="2" mask="url(#path-14-outside-4_57_15)"/>
<path d="M641.381 261.672V260.727H647.009V261.672H644.74V268H643.646V261.672H641.381Z" stroke="black" stroke-width="2" mask="url(#path-14-outside-4_57_15)"/>
<path d="M650.7 268V267.205L653.161 264.655C653.424 264.378 653.64 264.135 653.811 263.927C653.984 263.716 654.113 263.516 654.198 263.327C654.283 263.137 654.326 262.936 654.326 262.723C654.326 262.481 654.269 262.273 654.155 262.098C654.042 261.92 653.887 261.784 653.69 261.69C653.494 261.593 653.272 261.544 653.026 261.544C652.766 261.544 652.538 261.597 652.344 261.704C652.15 261.81 652.001 261.961 651.897 262.155C651.793 262.349 651.741 262.576 651.741 262.837H650.693C650.693 262.394 650.795 262.007 650.998 261.675C651.202 261.344 651.481 261.087 651.837 260.905C652.192 260.72 652.595 260.628 653.047 260.628C653.504 260.628 653.907 260.719 654.255 260.901C654.605 261.081 654.879 261.327 655.075 261.64C655.272 261.95 655.37 262.3 655.37 262.691C655.37 262.961 655.319 263.225 655.217 263.483C655.118 263.741 654.944 264.029 654.695 264.346C654.447 264.661 654.101 265.043 653.658 265.493L652.213 267.006V267.059H655.487V268H650.7Z" stroke="black" stroke-width="2" mask="url(#path-14-outside-4_57_15)"/>
<path d="M641.332 293.545H642.394V299.355C642.394 299.72 642.327 300.027 642.195 300.278C642.065 300.529 641.871 300.72 641.612 300.85C641.357 300.98 641.041 301.045 640.664 301.045C640.626 301.045 640.591 301.045 640.558 301.045C640.522 301.045 640.486 301.044 640.448 301.042V300.129C640.481 300.129 640.51 300.129 640.536 300.129C640.56 300.129 640.587 300.129 640.618 300.129C640.869 300.129 641.05 300.062 641.161 299.927C641.275 299.794 641.332 299.601 641.332 299.348V293.545ZM641.857 292.704C641.673 292.704 641.514 292.642 641.382 292.519C641.251 292.394 641.186 292.245 641.186 292.072C641.186 291.897 641.251 291.747 641.382 291.624C641.514 291.499 641.673 291.436 641.857 291.436C642.042 291.436 642.2 291.499 642.33 291.624C642.462 291.747 642.529 291.897 642.529 292.072C642.529 292.245 642.462 292.394 642.33 292.519C642.2 292.642 642.042 292.704 641.857 292.704Z" stroke="black" stroke-width="2" mask="url(#path-14-outside-4_57_15)"/>
<path id="seat-l" d="M480.363 402.5C582.363 402.5 745.863 351 816.363 195L882.363 221.5C785.361 424 624.361 459 488.863 475L480.363 402.5Z" fill="#4A9056"/>
<path d="M717.228 347.092H716.12C716.077 346.856 715.998 346.647 715.882 346.467C715.766 346.287 715.624 346.135 715.456 346.009C715.287 345.884 715.099 345.789 714.891 345.725C714.685 345.661 714.466 345.629 714.234 345.629C713.815 345.629 713.44 345.735 713.108 345.945C712.779 346.156 712.519 346.465 712.327 346.872C712.138 347.279 712.043 347.776 712.043 348.364C712.043 348.955 712.138 349.455 712.327 349.862C712.519 350.269 712.78 350.577 713.112 350.785C713.443 350.994 713.816 351.098 714.23 351.098C714.46 351.098 714.678 351.067 714.884 351.006C715.092 350.942 715.28 350.848 715.448 350.725C715.617 350.602 715.759 350.452 715.875 350.274C715.993 350.094 716.075 349.888 716.12 349.656L717.228 349.66C717.168 350.017 717.054 350.346 716.883 350.647C716.715 350.945 716.498 351.203 716.233 351.421C715.97 351.637 715.67 351.803 715.331 351.922C714.993 352.04 714.623 352.099 714.223 352.099C713.594 352.099 713.032 351.95 712.54 351.652C712.048 351.351 711.659 350.922 711.375 350.363C711.094 349.804 710.953 349.138 710.953 348.364C710.953 347.587 711.095 346.921 711.379 346.364C711.663 345.806 712.051 345.377 712.544 345.079C713.036 344.778 713.596 344.628 714.223 344.628C714.609 344.628 714.969 344.683 715.303 344.795C715.639 344.904 715.941 345.065 716.208 345.278C716.476 345.488 716.697 345.746 716.872 346.052C717.048 346.355 717.166 346.702 717.228 347.092Z" fill="black"/>
<path d="M719.056 352H717.891L720.509 344.727H721.776L724.393 352H723.229L721.173 346.048H721.116L719.056 352ZM719.251 349.152H723.03V350.075H719.251V349.152Z" fill="black"/>
<path d="M724.176 345.672V344.727H729.804V345.672H727.535V352H726.441V345.672H724.176Z" fill="black"/>
<path d="M733.342 350.58V349.692L736.485 344.727H737.185V346.034H736.741L734.493 349.592V349.649H738.8V350.58H733.342ZM736.791 352V350.31L736.798 349.905V344.727H737.838V352H736.791Z" fill="black"/>
<path d="M725.394 375.727V383H724.332V375.727H725.394Z" fill="black"/>
<path d="M816.55 194.536L882.55 221.036L883.045 221.234L882.814 221.716C834.267 323.062 769.69 382.518 700.28 418.631C630.884 454.737 556.684 467.494 488.922 475.496L488.425 475.556L488.366 475.059L479.866 402.559L479.801 402H480.363C582.247 402 745.517 350.551 815.907 194.794L816.104 194.357L816.55 194.536Z" stroke="black"/>
<path id="seat-f" d="M596.863 160.5L554.863 120.5L545.363 130.5H445.363V158H480.363V213.5H545.363L596.863 195V160.5Z" fill="#FEE505"/>
<path d="M522.636 150.092H521.528C521.485 149.856 521.406 149.647 521.29 149.467C521.174 149.287 521.032 149.135 520.864 149.009C520.696 148.884 520.507 148.789 520.299 148.725C520.093 148.661 519.874 148.629 519.642 148.629C519.223 148.629 518.848 148.735 518.516 148.945C518.187 149.156 517.927 149.465 517.735 149.872C517.546 150.279 517.451 150.777 517.451 151.364C517.451 151.955 517.546 152.455 517.735 152.862C517.927 153.269 518.189 153.577 518.52 153.786C518.851 153.994 519.224 154.098 519.639 154.098C519.868 154.098 520.086 154.067 520.292 154.006C520.5 153.942 520.689 153.848 520.857 153.725C521.025 153.602 521.167 153.452 521.283 153.274C521.401 153.094 521.483 152.888 521.528 152.656L522.636 152.66C522.577 153.017 522.462 153.346 522.291 153.647C522.123 153.945 521.907 154.203 521.641 154.421C521.379 154.637 521.078 154.804 520.739 154.922C520.401 155.04 520.032 155.099 519.632 155.099C519.002 155.099 518.441 154.95 517.948 154.652C517.456 154.351 517.068 153.922 516.784 153.363C516.502 152.804 516.361 152.138 516.361 151.364C516.361 150.587 516.503 149.921 516.787 149.364C517.071 148.806 517.459 148.377 517.952 148.079C518.444 147.778 519.004 147.628 519.632 147.628C520.017 147.628 520.377 147.683 520.711 147.795C521.047 147.904 521.349 148.065 521.617 148.278C521.884 148.488 522.105 148.746 522.281 149.052C522.456 149.355 522.574 149.702 522.636 150.092Z" fill="black"/>
<path d="M524.464 155H523.3L525.917 147.727H527.185L529.802 155H528.637L526.581 149.048H526.524L524.464 155ZM524.66 152.152H528.438V153.075H524.66V152.152Z" fill="black"/>
<path d="M529.584 148.672V147.727H535.212V148.672H532.943V155H531.85V148.672H529.584Z" fill="black"/>
<path d="M541.663 147.727V155H540.562V148.828H540.519L538.779 149.964V148.913L540.594 147.727H541.663Z" fill="black"/>
<path d="M530.827 180.545V181.398H527.745V180.545H530.827ZM528.59 186V179.913C528.59 179.572 528.665 179.29 528.814 179.065C528.963 178.837 529.161 178.668 529.407 178.557C529.653 178.443 529.921 178.386 530.209 178.386C530.422 178.386 530.605 178.404 530.756 178.44C530.908 178.473 531.02 178.504 531.094 178.532L530.845 179.391C530.795 179.377 530.731 179.361 530.653 179.342C530.575 179.32 530.48 179.31 530.369 179.31C530.111 179.31 529.926 179.374 529.815 179.501C529.706 179.629 529.652 179.814 529.652 180.055V186H528.59Z" fill="black"/>
<path d="M597.363 195.352L597.032 195.471L545.532 213.971L545.45 214H479.863V158.5H444.863V130H545.148L554.501 120.155L554.846 119.793L555.208 120.138L597.208 160.138L597.363 160.286V195.352Z" stroke="black"/>
<path id="seat-b" d="M543.863 125V62H479.863V94H445.363V125H543.863Z" fill="#FEE505"/>
<path d="M503.636 76.0923H502.528C502.485 75.8556 502.406 75.6473 502.29 75.4673C502.174 75.2874 502.032 75.1347 501.864 75.0092C501.696 74.8838 501.507 74.7891 501.299 74.7251C501.093 74.6612 500.874 74.6293 500.642 74.6293C500.223 74.6293 499.848 74.7346 499.516 74.9453C499.187 75.156 498.927 75.465 498.735 75.8722C498.546 76.2794 498.451 76.7765 498.451 77.3636C498.451 77.9555 498.546 78.455 498.735 78.8622C498.927 79.2694 499.189 79.5772 499.52 79.7855C499.851 79.9938 500.224 80.098 500.639 80.098C500.868 80.098 501.086 80.0672 501.292 80.0057C501.5 79.9418 501.689 79.8482 501.857 79.7251C502.025 79.602 502.167 79.4517 502.283 79.2741C502.401 79.0942 502.483 78.8883 502.528 78.6562L503.636 78.6598C503.577 79.0173 503.462 79.3464 503.291 79.647C503.123 79.9453 502.907 80.2034 502.641 80.4212C502.379 80.6366 502.078 80.8035 501.739 80.9219C501.401 81.0402 501.032 81.0994 500.632 81.0994C500.002 81.0994 499.441 80.9503 498.948 80.652C498.456 80.3513 498.068 79.9216 497.784 79.3629C497.502 78.8042 497.361 78.1378 497.361 77.3636C497.361 76.5871 497.503 75.9207 497.787 75.3643C498.071 74.8056 498.459 74.3771 498.952 74.0788C499.444 73.7782 500.004 73.6278 500.632 73.6278C501.017 73.6278 501.377 73.6835 501.711 73.7947C502.047 73.9036 502.349 74.0646 502.617 74.2777C502.884 74.4884 503.105 74.7464 503.281 75.0518C503.456 75.3549 503.574 75.7017 503.636 76.0923Z" fill="black"/>
<path d="M505.464 81H504.3L506.917 73.7273H508.184L510.802 81H509.637L507.581 75.0483H507.524L505.464 81ZM505.66 78.152H509.438V79.0753H505.66V78.152Z" fill="black"/>
<path d="M510.584 74.6719V73.7273H516.212V74.6719H513.943V81H512.85V74.6719H510.584Z" fill="black"/>
<path d="M522.663 73.7273V81H521.562V74.8281H521.519L519.779 75.9645V74.9134L521.594 73.7273H522.663Z" fill="black"/>
<path d="M509.989 112.107C509.549 112.107 509.156 111.994 508.81 111.769C508.467 111.542 508.197 111.219 508 110.8C507.806 110.378 507.709 109.873 507.709 109.283C507.709 108.694 507.807 108.19 508.004 107.771C508.203 107.352 508.475 107.031 508.821 106.808C509.166 106.586 509.558 106.474 509.996 106.474C510.335 106.474 510.607 106.531 510.813 106.645C511.021 106.756 511.182 106.886 511.296 107.036C511.412 107.185 511.502 107.316 511.566 107.43H511.63V104.727H512.691V112H511.655V111.151H511.566C511.502 111.267 511.41 111.4 511.289 111.549C511.17 111.698 511.007 111.828 510.799 111.94C510.59 112.051 510.321 112.107 509.989 112.107ZM510.223 111.201C510.529 111.201 510.787 111.121 510.998 110.96C511.211 110.796 511.372 110.57 511.481 110.281C511.592 109.992 511.647 109.656 511.647 109.273C511.647 108.894 511.593 108.562 511.484 108.278C511.375 107.994 511.215 107.773 511.005 107.614C510.794 107.456 510.534 107.376 510.223 107.376C509.904 107.376 509.638 107.459 509.424 107.625C509.211 107.791 509.05 108.017 508.941 108.303C508.835 108.59 508.782 108.913 508.782 109.273C508.782 109.637 508.836 109.965 508.945 110.256C509.054 110.548 509.215 110.778 509.428 110.949C509.643 111.117 509.909 111.201 510.223 111.201Z" fill="black"/>
<path d="M544.363 61.5V125.5H444.863V93.5H479.363V61.5H544.363Z" stroke="black"/>
<path d="M430.471 19.2283C430.428 18.7987 430.245 18.4648 429.922 18.2269C429.599 17.989 429.16 17.87 428.606 17.87C428.23 17.87 427.912 17.9233 427.653 18.0298C427.394 18.1328 427.195 18.2766 427.056 18.4613C426.921 18.646 426.854 18.8555 426.854 19.0898C426.847 19.2852 426.888 19.4556 426.976 19.6012C427.069 19.7468 427.195 19.8729 427.355 19.9794C427.514 20.0824 427.699 20.1729 427.909 20.2511C428.118 20.3256 428.342 20.3896 428.58 20.4428L429.56 20.6772C430.036 20.7837 430.472 20.9258 430.87 21.1033C431.268 21.2809 431.612 21.4993 431.904 21.7585C432.195 22.0178 432.42 22.3232 432.58 22.6747C432.743 23.0263 432.827 23.4293 432.83 23.8839C432.827 24.5515 432.656 25.1303 432.319 25.6204C431.985 26.1069 431.502 26.4851 430.87 26.755C430.242 27.0213 429.483 27.1545 428.596 27.1545C427.715 27.1545 426.948 27.0195 426.295 26.7496C425.645 26.4798 425.137 26.0803 424.771 25.5511C424.409 25.0185 424.219 24.3597 424.201 23.5749H426.433C426.458 23.9407 426.563 24.2461 426.747 24.4911C426.936 24.7326 427.186 24.9155 427.498 25.0398C427.814 25.1605 428.171 25.2209 428.569 25.2209C428.96 25.2209 429.299 25.1641 429.586 25.0504C429.878 24.9368 430.103 24.7788 430.263 24.5763C430.423 24.3739 430.503 24.1413 430.503 23.8786C430.503 23.6335 430.43 23.4276 430.284 23.2607C430.142 23.0937 429.933 22.9517 429.656 22.8345C429.382 22.7173 429.047 22.6108 428.649 22.5149L427.461 22.2166C426.541 21.9929 425.815 21.6431 425.283 21.1673C424.75 20.6914 424.485 20.0504 424.489 19.2443C424.485 18.5838 424.661 18.0067 425.016 17.5131C425.375 17.0195 425.867 16.6342 426.492 16.3572C427.117 16.0803 427.827 15.9418 428.622 15.9418C429.432 15.9418 430.139 16.0803 430.742 16.3572C431.35 16.6342 431.822 17.0195 432.159 17.5131C432.497 18.0067 432.671 18.5785 432.681 19.2283H430.471ZM438.616 18.8182V20.5227H433.689V18.8182H438.616ZM434.808 16.858H437.077V24.4858C437.077 24.6953 437.109 24.8587 437.173 24.9759C437.237 25.0895 437.325 25.1694 437.439 25.2156C437.556 25.2617 437.691 25.2848 437.844 25.2848C437.95 25.2848 438.057 25.2759 438.163 25.2582C438.27 25.2369 438.352 25.2209 438.408 25.2102L438.765 26.8988C438.652 26.9343 438.492 26.9751 438.286 27.0213C438.08 27.071 437.83 27.1012 437.535 27.1119C436.988 27.1332 436.509 27.0604 436.097 26.8935C435.688 26.7266 435.37 26.4673 435.143 26.1158C434.916 25.7642 434.804 25.3203 434.808 24.7841V16.858ZM442.352 27.1545C441.83 27.1545 441.365 27.0639 440.957 26.8828C440.548 26.6982 440.225 26.4265 439.987 26.0678C439.753 25.7056 439.636 25.2546 439.636 24.7148C439.636 24.2603 439.719 23.8786 439.886 23.5696C440.053 23.2607 440.28 23.0121 440.568 22.8239C440.856 22.6357 441.182 22.4936 441.548 22.3977C441.917 22.3018 442.304 22.2344 442.709 22.1953C443.185 22.1456 443.569 22.0994 443.86 22.0568C444.151 22.0107 444.362 21.9432 444.494 21.8544C444.625 21.7656 444.691 21.6342 444.691 21.4602V21.4283C444.691 21.0909 444.584 20.8299 444.371 20.6452C444.162 20.4606 443.863 20.3683 443.476 20.3683C443.068 20.3683 442.743 20.4588 442.502 20.6399C442.26 20.8175 442.1 21.0412 442.022 21.3111L439.923 21.1406C440.03 20.6435 440.239 20.2138 440.552 19.8516C440.864 19.4858 441.268 19.2053 441.761 19.0099C442.258 18.8111 442.834 18.7116 443.487 18.7116C443.942 18.7116 444.377 18.7649 444.792 18.8714C445.211 18.978 445.582 19.1431 445.905 19.3668C446.232 19.5906 446.489 19.8782 446.678 20.2298C446.866 20.5778 446.96 20.995 446.96 21.4815V27H444.808V25.8654H444.744C444.613 26.1211 444.437 26.3466 444.217 26.5419C443.997 26.7337 443.732 26.8846 443.423 26.9947C443.114 27.1012 442.757 27.1545 442.352 27.1545ZM443.002 25.5884C443.336 25.5884 443.631 25.5227 443.886 25.3913C444.142 25.2564 444.343 25.0753 444.488 24.848C444.634 24.6207 444.707 24.3633 444.707 24.0756V23.2074C444.636 23.2536 444.538 23.2962 444.414 23.3352C444.293 23.3707 444.156 23.4045 444.004 23.4364C443.851 23.4648 443.698 23.4915 443.546 23.5163C443.393 23.5376 443.254 23.5572 443.13 23.5749C442.864 23.614 442.631 23.6761 442.432 23.7614C442.233 23.8466 442.079 23.962 441.969 24.1076C441.859 24.2496 441.804 24.4272 441.804 24.6403C441.804 24.9492 441.916 25.1854 442.139 25.3487C442.367 25.5085 442.654 25.5884 443.002 25.5884ZM452.332 30.2386C451.596 30.2386 450.966 30.1374 450.441 29.935C449.919 29.7362 449.503 29.4645 449.194 29.12C448.885 28.7756 448.685 28.3885 448.592 27.9588L450.691 27.6765C450.755 27.8398 450.856 27.9925 450.995 28.1346C451.133 28.2766 451.316 28.3903 451.543 28.4755C451.774 28.5643 452.055 28.6087 452.385 28.6087C452.878 28.6087 453.285 28.4879 453.605 28.2464C453.928 28.0085 454.089 27.609 454.089 27.0479V25.5511H453.993C453.894 25.7784 453.745 25.9933 453.546 26.1957C453.347 26.3981 453.092 26.5632 452.779 26.6911C452.467 26.8189 452.094 26.8828 451.66 26.8828C451.046 26.8828 450.487 26.7408 449.982 26.4567C449.482 26.169 449.082 25.7305 448.784 25.141C448.489 24.5479 448.342 23.7987 448.342 22.8931C448.342 21.9663 448.493 21.1921 448.795 20.5707C449.096 19.9492 449.498 19.484 449.998 19.1751C450.503 18.8661 451.055 18.7116 451.655 18.7116C452.113 18.7116 452.497 18.7898 452.806 18.946C453.115 19.0987 453.363 19.2905 453.551 19.5213C453.743 19.7486 453.891 19.9723 453.993 20.1925H454.079V18.8182H456.332V27.0799C456.332 27.7759 456.161 28.3583 455.821 28.8271C455.48 29.2958 455.007 29.6474 454.404 29.8817C453.804 30.1197 453.113 30.2386 452.332 30.2386ZM452.38 25.1783C452.745 25.1783 453.054 25.0877 453.306 24.9066C453.562 24.7219 453.757 24.4592 453.892 24.1183C454.031 23.7738 454.1 23.3619 454.1 22.8825C454.1 22.4031 454.033 21.9876 453.898 21.636C453.763 21.2809 453.567 21.0057 453.312 20.8104C453.056 20.6151 452.745 20.5174 452.38 20.5174C452.007 20.5174 451.692 20.6186 451.437 20.821C451.181 21.0199 450.987 21.2969 450.856 21.652C450.725 22.0071 450.659 22.4173 450.659 22.8825C450.659 23.3548 450.725 23.7631 450.856 24.1076C450.991 24.4485 451.185 24.7131 451.437 24.9013C451.692 25.0859 452.007 25.1783 452.38 25.1783ZM461.791 27.1598C460.95 27.1598 460.225 26.9893 459.618 26.6484C459.014 26.304 458.549 25.8175 458.222 25.1889C457.896 24.5568 457.732 23.8093 457.732 22.9464C457.732 22.1048 457.896 21.3661 458.222 20.7305C458.549 20.0948 459.009 19.5994 459.602 19.2443C460.199 18.8892 460.898 18.7116 461.701 18.7116C462.241 18.7116 462.743 18.7987 463.208 18.9727C463.677 19.1431 464.085 19.4006 464.433 19.745C464.785 20.0895 465.058 20.5227 465.254 21.0447C465.449 21.5632 465.547 22.1705 465.547 22.8665V23.4897H458.638V22.0835H463.411C463.411 21.7567 463.34 21.4673 463.198 21.2152C463.056 20.9631 462.858 20.766 462.606 20.6239C462.358 20.4783 462.068 20.4055 461.738 20.4055C461.394 20.4055 461.088 20.4854 460.822 20.6452C460.559 20.8015 460.353 21.0128 460.204 21.2791C460.055 21.5419 459.979 21.8349 459.975 22.158V23.495C459.975 23.8999 460.05 24.2496 460.199 24.5444C460.351 24.8391 460.566 25.0664 460.843 25.2262C461.12 25.386 461.449 25.4659 461.829 25.4659C462.081 25.4659 462.312 25.4304 462.521 25.3594C462.731 25.2884 462.91 25.1818 463.059 25.0398C463.208 24.8977 463.322 24.7237 463.4 24.5178L465.499 24.6562C465.392 25.1605 465.174 25.6009 464.844 25.9773C464.517 26.3501 464.094 26.6413 463.576 26.8509C463.061 27.0568 462.466 27.1598 461.791 27.1598Z" fill="black"/>
</svg>
